<svg xmlns="http://www.w3.org/2000/svg" width="1030" height="410" viewBox="0 0 1030 410">
  <g id="Grupo_1070785" data-name="Grupo 1070785" transform="translate(-285 -1531)">
    <rect id="Rectángulo_375558" data-name="Rectángulo 375558" width="1030" height="410" rx="30" transform="translate(285 1531)" fill="#dbf9bd"/>
    <rect id="Rectángulo_375598" data-name="Rectángulo 375598" width="311" height="347" transform="translate(318 1563)" fill="#fff"/>
    <rect id="Rectángulo_375599" data-name="Rectángulo 375599" width="311" height="347" transform="translate(646 1563)" fill="#fff"/>
    <rect id="Rectángulo_375600" data-name="Rectángulo 375600" width="311" height="347" transform="translate(975 1563)" fill="#fff"/>
    <path id="Trazado_814892" data-name="Trazado 814892" d="M31.482,14.186a5.193,5.193,0,0,1-.8,2.622,4.833,4.833,0,0,1-2.056,1.763A7,7,0,0,1,25.6,19.2a5.584,5.584,0,0,1-4.414-1.826,7.54,7.54,0,0,1-1.611-5.156v-.7a8.607,8.607,0,0,1,.728-3.657A5.513,5.513,0,0,1,22.4,5.431a5.844,5.844,0,0,1,3.164-.854,6.129,6.129,0,0,1,4.16,1.362,5.383,5.383,0,0,1,1.787,3.755H28.094a2.547,2.547,0,0,0-.654-1.865,2.691,2.691,0,0,0-1.875-.566,2.048,2.048,0,0,0-1.875.957,6.151,6.151,0,0,0-.625,3.057v1.006a6.806,6.806,0,0,0,.571,3.252,2.091,2.091,0,0,0,1.968.977,2.632,2.632,0,0,0,1.807-.557,2.363,2.363,0,0,0,.664-1.768ZM36.424,19h-3.3V4h3.3Zm5.5,0h-3.3V8.434h3.3Zm-3.5-13.291a1.469,1.469,0,0,1,.508-1.152,2.159,2.159,0,0,1,2.637,0,1.469,1.469,0,0,1,.508,1.152,1.469,1.469,0,0,1-.508,1.152,2.159,2.159,0,0,1-2.637,0A1.469,1.469,0,0,1,38.426,5.709Zm8.633,2.725.107,1.24a3.633,3.633,0,0,1,3.018-1.436A2.675,2.675,0,0,1,52.889,9.83a3.516,3.516,0,0,1,3.105-1.592q3.213,0,3.3,3.887V19h-3.3V12.33a2.014,2.014,0,0,0-.273-1.182,1.164,1.164,0,0,0-1-.371,1.559,1.559,0,0,0-1.455.869l.01.137V19h-3.3V12.35a2.117,2.117,0,0,0-.264-1.2,1.161,1.161,0,0,0-1.006-.371,1.578,1.578,0,0,0-1.445.869V19H43.973V8.434ZM67.127,19a3.716,3.716,0,0,1-.312-.947A3.06,3.06,0,0,1,64.275,19.2a3.749,3.749,0,0,1-2.539-.9,2.875,2.875,0,0,1-1.045-2.271,2.955,2.955,0,0,1,1.27-2.6,6.468,6.468,0,0,1,3.691-.879h1.016v-.559q0-1.462-1.26-1.462a1.03,1.03,0,0,0-1.172,1.158H60.945a2.95,2.95,0,0,1,1.3-2.487,5.479,5.479,0,0,1,3.325-.956,4.8,4.8,0,0,1,3.193.986,3.429,3.429,0,0,1,1.2,2.705v4.678a4.79,4.79,0,0,0,.449,2.227V19Zm-2.061-2.148a1.836,1.836,0,0,0,1.021-.264,1.653,1.653,0,0,0,.581-.6V14.3h-.957q-1.719,0-1.719,1.543a.942.942,0,0,0,.3.728A1.1,1.1,0,0,0,65.066,16.852ZM65.887,4h3.477L66.648,7.066l-2.686,0Zm9.736,1.807V8.434h1.738v2.285H75.623v4.834a1.234,1.234,0,0,0,.215.83,1.152,1.152,0,0,0,.85.234,4.828,4.828,0,0,0,.82-.059v2.354a6.074,6.074,0,0,1-1.855.283,3.448,3.448,0,0,1-2.51-.8,3.282,3.282,0,0,1-.811-2.432V10.719H70.984V8.434h1.348V5.807ZM82.127,19h-3.3V8.434h3.3Zm-3.5-13.291a1.469,1.469,0,0,1,.508-1.152,2.159,2.159,0,0,1,2.637,0,1.469,1.469,0,0,1,.508,1.152,1.469,1.469,0,0,1-.508,1.152,2.159,2.159,0,0,1-2.637,0A1.469,1.469,0,0,1,78.631,5.709Zm9.99,10.947A1.464,1.464,0,0,0,89.7,16.28a1.379,1.379,0,0,0,.371-1.05h3.086a3.653,3.653,0,0,1-1.245,2.852A4.631,4.631,0,0,1,88.7,19.2a4.689,4.689,0,0,1-3.633-1.445,5.7,5.7,0,0,1-1.328-4v-.137a6.436,6.436,0,0,1,.591-2.827,4.3,4.3,0,0,1,1.7-1.885,5.081,5.081,0,0,1,2.637-.659,4.573,4.573,0,0,1,3.271,1.143,4.053,4.053,0,0,1,1.211,3.1H90.066a1.806,1.806,0,0,0-.4-1.26,1.382,1.382,0,0,0-1.074-.439q-1.279,0-1.494,1.631a11.508,11.508,0,0,0-.068,1.426,4.52,4.52,0,0,0,.381,2.207A1.319,1.319,0,0,0,88.621,16.656Zm5.508-3.037a6.236,6.236,0,0,1,.615-2.817,4.4,4.4,0,0,1,1.768-1.9,5.323,5.323,0,0,1,2.705-.664,4.858,4.858,0,0,1,3.74,1.47,5.64,5.64,0,0,1,1.367,4v.117a5.472,5.472,0,0,1-1.372,3.921,4.871,4.871,0,0,1-3.716,1.45,4.927,4.927,0,0,1-3.623-1.353,5.29,5.29,0,0,1-1.475-3.667Zm3.291.205a3.932,3.932,0,0,0,.459,2.148,1.529,1.529,0,0,0,1.357.684q1.758,0,1.8-2.705v-.332q0-2.842-1.816-2.842-1.65,0-1.787,2.451Zm13.887,2.207a.76.76,0,0,0-.439-.674,6.685,6.685,0,0,0-1.67-.527,7.615,7.615,0,0,1-2.031-.718,3.4,3.4,0,0,1-1.221-1.079,2.577,2.577,0,0,1-.42-1.455,2.92,2.92,0,0,1,1.2-2.4,4.948,4.948,0,0,1,3.145-.942,5.482,5.482,0,0,1,3.359.947,2.962,2.962,0,0,1,1.27,2.49h-3.3q0-1.27-1.338-1.27a1.326,1.326,0,0,0-.869.288.892.892,0,0,0-.352.718.819.819,0,0,0,.43.713,4.06,4.06,0,0,0,1.372.449,11.857,11.857,0,0,1,1.655.42,3.007,3.007,0,0,1,2.383,2.939,2.767,2.767,0,0,1-1.284,2.354,5.631,5.631,0,0,1-3.325.908,5.747,5.747,0,0,1-2.422-.488,4.05,4.05,0,0,1-1.66-1.328,3.007,3.007,0,0,1-.6-1.768h3.076a1.272,1.272,0,0,0,.488,1.069,2.009,2.009,0,0,0,1.2.337,1.58,1.58,0,0,0,1.011-.273A.875.875,0,0,0,111.307,16.031Z" transform="translate(413 1584)" fill="#12263f"/>
    <g id="nublado" transform="translate(359 1623.195)">
      <circle id="Elipse_5709" data-name="Elipse 5709" cx="51.001" cy="51.001" r="51.001" transform="translate(64.692 98.045) rotate(-45)" fill="#ffe177"/>
      <path id="Trazado_808842" data-name="Trazado 808842" d="M288.847,98.819a51.012,51.012,0,0,1-55.831,83.9,51.005,51.005,0,1,0,55.831-83.9Z" transform="translate(-130.687 -47.119)" fill="#ffd15b"/>
      <path id="Trazado_808843" data-name="Trazado 808843" d="M12.724,223.054a12.9,12.9,0,0,1,1.3.065,16.765,16.765,0,0,1,16.555-19.354,16.685,16.685,0,0,1,10.641,3.813,12.721,12.721,0,0,1,16.029-5.986,22.089,22.089,0,0,1,43.083,9.286A18.926,18.926,0,0,1,97.39,248.5H12.723a12.724,12.724,0,0,1,0-25.447Z" transform="translate(0 -95.813)" fill="#01d0fb"/>
      <path id="Trazado_808844" data-name="Trazado 808844" d="M103.131,244.622a18.921,18.921,0,0,1-18.915,18.514H1.36A12.722,12.722,0,0,0,12.724,281.58H97.391a18.925,18.925,0,0,0,5.741-36.958Z" transform="translate(0 -128.893)" fill="#01c0fa"/>
      <path id="Trazado_808845" data-name="Trazado 808845" d="M287.224,258.106a24.425,24.425,0,0,0-15.317,5.375,16.845,16.845,0,0,0-23.341-13.995,24.532,24.532,0,1,0-48.1,9.6,18.277,18.277,0,0,0-20.732,20.316,13.9,13.9,0,0,0,.879,27.77H287.224a24.534,24.534,0,0,0,0-49.068Z" transform="translate(-93.501 -120.226)" fill="#99e6fc"/>
      <path id="Trazado_808846" data-name="Trazado 808846" d="M294.756,296.921a24.529,24.529,0,0,1-19.459,39.47H168.937a13.9,13.9,0,0,0,12.923,8.783H288.471a24.536,24.536,0,0,0,6.285-48.253Z" transform="translate(-94.748 -158.225)" fill="#62dbfb"/>
      <path id="Trazado_808847" data-name="Trazado 808847" d="M171.434,328.049a19.268,19.268,0,0,0-1.941.1,25.1,25.1,0,0,0-24.782-28.972,24.979,24.979,0,0,0-15.93,5.708,19.043,19.043,0,0,0-24-8.96,33.065,33.065,0,0,0-64.492,13.9,28.331,28.331,0,0,0,4.4,56.318H171.434a19.046,19.046,0,1,0,0-38.092Z" transform="translate(-9.178 -144.273)" fill="#c8effe"/>
      <path id="Trazado_808848" data-name="Trazado 808848" d="M182.973,400.122a19.045,19.045,0,0,1-16.2,29.069H40.037a28.313,28.313,0,0,1-8.485-1.294,28.263,28.263,0,0,0,21.659,10.077H179.952a19.046,19.046,0,0,0,3.021-37.852Z" transform="translate(-17.696 -216.105)" fill="#99e6fc"/>
      <g id="Grupo_1067526" data-name="Grupo 1067526" transform="translate(57.607 14.805)">
        <path id="Trazado_808849" data-name="Trazado 808849" d="M151.539,127.237a3.276,3.276,0,0,1-1.444-.336l-17.068-8.345a3.294,3.294,0,0,1,2.893-5.918l17.068,8.345a3.295,3.295,0,0,1-1.449,6.254Z" transform="translate(-131.179 -69.487)" fill="#ffc344"/>
        <path id="Trazado_808850" data-name="Trazado 808850" d="M316.1,43.585c-.065,0-.13,0-.2-.006a3.293,3.293,0,0,1-3.1-3.48l.5-8.536a3.294,3.294,0,0,1,6.576.385l-.5,8.536A3.294,3.294,0,0,1,316.1,43.585Z" transform="translate(-233.043 -22.464)" fill="#ffc344"/>
        <path id="Trazado_808851" data-name="Trazado 808851" d="M251.058,39.364a3.294,3.294,0,0,1-3.115-2.225l-6.168-17.97a3.294,3.294,0,1,1,6.23-2.139L254.173,35a3.3,3.3,0,0,1-3.115,4.364Z" transform="translate(-193.106 -14.805)" fill="#ffc344"/>
        <path id="Trazado_808852" data-name="Trazado 808852" d="M372.9,47.6a3.295,3.295,0,0,1-2.956-4.741l8.345-17.068a3.293,3.293,0,1,1,5.917,2.893l-8.345,17.068A3.292,3.292,0,0,1,372.9,47.6Z" transform="translate(-264.905 -19.927)" fill="#ffc344"/>
        <path id="Trazado_808853" data-name="Trazado 808853" d="M448.49,147.112a3.294,3.294,0,0,1-1.069-6.41l17.97-6.168a3.294,3.294,0,0,1,2.138,6.231l-17.97,6.168A3.285,3.285,0,0,1,448.49,147.112Z" transform="translate(-307.295 -81.855)" fill="#ffc344"/>
        <path id="Trazado_808854" data-name="Trazado 808854" d="M460.751,263.423a3.288,3.288,0,0,1-1.322-.278l-17.4-7.636a3.294,3.294,0,0,1,2.648-6.032l17.4,7.636a3.294,3.294,0,0,1-1.325,6.31Z" transform="translate(-304.416 -146.264)" fill="#ffc344"/>
        <path id="Trazado_808855" data-name="Trazado 808855" d="M418.862,97.02a3.294,3.294,0,0,1-2.19-5.755l6.389-5.682a3.294,3.294,0,0,1,4.378,4.922l-6.389,5.682A3.281,3.281,0,0,1,418.862,97.02Z" transform="translate(-290.678 -54.034)" fill="#ffc344"/>
        <path id="Trazado_808856" data-name="Trazado 808856" d="M464.858,212.65c-.065,0-.13,0-.2-.006l-8.535-.5a3.294,3.294,0,1,1,.385-6.576l8.536.5a3.294,3.294,0,0,1-.19,6.582Z" transform="translate(-311.687 -121.791)" fill="#ffc344"/>
        <path id="Trazado_808857" data-name="Trazado 808857" d="M200.968,83.783a3.286,3.286,0,0,1-2.462-1.1l-5.682-6.389a3.294,3.294,0,1,1,4.922-4.378l5.682,6.389a3.294,3.294,0,0,1-2.46,5.483Z" transform="translate(-165.286 -46.213)" fill="#ffc344"/>
      </g>
    </g>
    <path id="Trazado_814891" data-name="Trazado 814891" d="M38.167,12.965H32.776v3.4h6.367V19H29.349V4.781h9.814V7.428H32.776v3h5.391Zm1.621.674a6.455,6.455,0,0,1,1.084-3.955A3.568,3.568,0,0,1,43.9,8.238a3.035,3.035,0,0,1,2.383,1.113V4h3.3V19H46.624l-.166-1.133A3.116,3.116,0,0,1,43.88,19.2a3.562,3.562,0,0,1-2.988-1.445A6.659,6.659,0,0,1,39.788,13.639Zm3.291.205q0,2.813,1.641,2.813a1.62,1.62,0,0,0,1.563-.918V11.715a1.576,1.576,0,0,0-1.543-.937q-1.523,0-1.65,2.461ZM57.405,19a3.716,3.716,0,0,1-.312-.947A3.06,3.06,0,0,1,54.554,19.2a3.749,3.749,0,0,1-2.539-.9,2.875,2.875,0,0,1-1.045-2.271,2.955,2.955,0,0,1,1.27-2.6,6.468,6.468,0,0,1,3.691-.879h1.016v-.559q0-1.462-1.26-1.462a1.03,1.03,0,0,0-1.172,1.158H51.224a2.95,2.95,0,0,1,1.3-2.487,5.479,5.479,0,0,1,3.325-.956,4.8,4.8,0,0,1,3.193.986,3.429,3.429,0,0,1,1.2,2.705v4.678a4.79,4.79,0,0,0,.449,2.227V19Zm-2.061-2.148a1.836,1.836,0,0,0,1.021-.264,1.653,1.653,0,0,0,.581-.6V14.3h-.957q-1.719,0-1.719,1.543a.942.942,0,0,0,.3.728A1.1,1.1,0,0,0,55.345,16.852ZM56.165,4h3.477L56.927,7.066l-2.686,0Zm6.67,15V10.719H61.3V8.434h1.533V8.082A4.034,4.034,0,0,1,64.222,4.85a5.541,5.541,0,0,1,3.6-1.055,12.787,12.787,0,0,1,3.438.566l-.449,2.6-.547-.146a8.7,8.7,0,0,0-2.246-.283q-1.885,0-1.885,1.719v.186h2.07v2.285h-2.07V19Zm9.941,0H69.466V8.434h3.311Zm6.475-2.344a1.464,1.464,0,0,0,1.074-.376,1.379,1.379,0,0,0,.371-1.05h3.086a3.653,3.653,0,0,1-1.245,2.852A4.631,4.631,0,0,1,79.329,19.2,4.689,4.689,0,0,1,75.7,17.75a5.7,5.7,0,0,1-1.328-4v-.137a6.436,6.436,0,0,1,.591-2.827,4.3,4.3,0,0,1,1.7-1.885A5.081,5.081,0,0,1,79.3,8.238a4.573,4.573,0,0,1,3.271,1.143,4.053,4.053,0,0,1,1.211,3.1H80.7a1.806,1.806,0,0,0-.4-1.26,1.382,1.382,0,0,0-1.074-.439q-1.279,0-1.494,1.631a11.508,11.508,0,0,0-.068,1.426,4.52,4.52,0,0,0,.381,2.207A1.319,1.319,0,0,0,79.251,16.656Zm5.508-3.037a6.236,6.236,0,0,1,.615-2.817,4.4,4.4,0,0,1,1.768-1.9,5.323,5.323,0,0,1,2.705-.664,4.858,4.858,0,0,1,3.74,1.47,5.64,5.64,0,0,1,1.367,4v.117a5.472,5.472,0,0,1-1.372,3.921,4.871,4.871,0,0,1-3.716,1.45,4.927,4.927,0,0,1-3.623-1.353,5.29,5.29,0,0,1-1.475-3.667Zm3.291.205a3.932,3.932,0,0,0,.459,2.148,1.529,1.529,0,0,0,1.357.684q1.758,0,1.8-2.705v-.332q0-2.842-1.816-2.842-1.65,0-1.787,2.451Zm13.887,2.207a.76.76,0,0,0-.439-.674,6.685,6.685,0,0,0-1.67-.527,7.615,7.615,0,0,1-2.031-.718,3.4,3.4,0,0,1-1.221-1.079,2.577,2.577,0,0,1-.42-1.455,2.92,2.92,0,0,1,1.2-2.4,4.948,4.948,0,0,1,3.145-.942,5.482,5.482,0,0,1,3.359.947,2.962,2.962,0,0,1,1.27,2.49h-3.3q0-1.27-1.338-1.27a1.326,1.326,0,0,0-.869.288.892.892,0,0,0-.352.718.819.819,0,0,0,.43.713,4.06,4.06,0,0,0,1.372.449,11.857,11.857,0,0,1,1.655.42,3.007,3.007,0,0,1,2.383,2.939,2.767,2.767,0,0,1-1.284,2.354,5.631,5.631,0,0,1-3.325.908,5.747,5.747,0,0,1-2.422-.488,4.05,4.05,0,0,1-1.66-1.328,3.007,3.007,0,0,1-.6-1.768H98.9a1.272,1.272,0,0,0,.488,1.069,2.009,2.009,0,0,0,1.2.337,1.58,1.58,0,0,0,1.011-.273A.875.875,0,0,0,101.937,16.031Z" transform="translate(730 1584)" fill="#12263f"/>
    <g id="Page-1" transform="translate(702.202 1641.539)">
      <g id="_001---Plant" data-name="001---Plant" transform="translate(0.965 -0.003)">
        <path id="Shape" d="M177.946,68.709a16.549,16.549,0,0,0-10.632,3.924,30.034,30.034,0,0,0-43.582-20.393,26.66,26.66,0,0,0-51.751,0A30.034,30.034,0,0,0,28.4,72.634a16.685,16.685,0,1,0-.427,25.872,26.67,26.67,0,0,0,50.567,8.4,21.664,21.664,0,0,0,38.637,0,26.67,26.67,0,0,0,50.567-8.4,16.655,16.655,0,1,0,10.2-29.8Z" transform="translate(-0.965 71.457)" fill="#cb8252"/>
        <path id="Shape-2" data-name="Shape" d="M85.429,52.427C71.794,66.062,51.855,69.78,41.143,70.781a6.414,6.414,0,0,1-7.1-7.1c1-10.712,4.719-30.648,18.354-44.283S85.963,2.041,96.675,1.039a6.414,6.414,0,0,1,7.1,7.1C102.782,18.853,99.081,38.792,85.429,52.427Z" transform="translate(76.231 -0.997)" fill="#26b99a"/>
        <path id="Shape-3" data-name="Shape" d="M55.068,20.691c14.42,12.8,19.312,32.486,20.95,43.118a6.417,6.417,0,0,1-6.674,7.515c-10.752-.367-30.875-2.893-45.3-15.684S4.731,23.157,3.093,12.525A6.417,6.417,0,0,1,9.764,5.007c10.752.37,30.875,2.9,45.3,15.684Z" transform="translate(3.781 8.35)" fill="#26b99a"/>
        <path id="Shape-4" data-name="Shape" d="M81.416,116.124h-.14a3.337,3.337,0,0,1-3.2-3.337c0-15.848-9.678-35-19.045-44.36C49.186,58.583,9.482,22.176,9.081,21.808a3.337,3.337,0,1,1,4.512-4.919c1.639,1.5,40.212,36.871,50.16,46.819A79.923,79.923,0,0,1,80.979,92.454c2.509-12.938,6.964-29.033,14.516-38.483a311.785,311.785,0,0,1,47.24-47.24,3.338,3.338,0,1,1,4.171,5.213,304.806,304.806,0,0,0-46.2,46.2c-12.554,15.684-15.935,54.531-15.965,54.922a3.337,3.337,0,0,1-3.327,3.06Z" transform="translate(15.476 10.693)" fill="#14a085"/>
        <g id="Grupo_1067527" data-name="Grupo 1067527" transform="translate(43.498 120.143)">
          <path id="Shape-5" data-name="Shape" d="M43.67,47.011a3.337,3.337,0,0,1-2.359-.978A8.283,8.283,0,0,0,37,43.674a8.3,8.3,0,0,0-4.338,2.369,3.337,3.337,0,0,1-4.709-4.729A14.683,14.683,0,0,1,37,37a14.683,14.683,0,0,1,9.033,4.315,3.337,3.337,0,0,1-2.359,5.7Z" transform="translate(16.398 -37)" fill="#a56a43"/>
          <path id="Shape-6" data-name="Shape" d="M24.011,57.348A10.011,10.011,0,0,1,14,47.337a3.337,3.337,0,0,1,6.674,0,3.337,3.337,0,1,0,6.674,0,3.337,3.337,0,0,1,6.674,0A10.011,10.011,0,0,1,24.011,57.348Z" transform="translate(-14 -20.64)" fill="#a56a43"/>
          <path id="Shape-7" data-name="Shape" d="M35.011,61.348A10.011,10.011,0,0,1,25,51.337a3.337,3.337,0,1,1,6.674,0,3.337,3.337,0,0,0,6.674,0,3.337,3.337,0,1,1,6.674,0A10.011,10.011,0,0,1,35.011,61.348Z" transform="translate(11.708 -11.292)" fill="#a56a43"/>
          <path id="Shape-8" data-name="Shape" d="M48.011,55.348A10.011,10.011,0,0,1,38,45.337a3.337,3.337,0,1,1,6.674,0,3.337,3.337,0,1,0,6.674,0,3.337,3.337,0,1,1,6.674,0A10.011,10.011,0,0,1,48.011,55.348Z" transform="translate(42.09 -25.315)" fill="#a56a43"/>
        </g>
        <circle id="Oval" cx="3.337" cy="3.337" r="3.337" transform="translate(133.599 166.862)" fill="#805333"/>
        <circle id="Oval-2" data-name="Oval" cx="3.337" cy="3.337" r="3.337" transform="translate(153.622 150.177)" fill="#805333"/>
        <circle id="Oval-3" data-name="Oval" cx="3.337" cy="3.337" r="3.337" transform="translate(186.993 126.817)" fill="#cb8252"/>
        <circle id="Oval-4" data-name="Oval" cx="3.337" cy="3.337" r="3.337" transform="translate(103.566 140.166)" fill="#805333"/>
        <circle id="Oval-5" data-name="Oval" cx="3.337" cy="3.337" r="3.337" transform="translate(20.139 116.806)" fill="#cb8252"/>
        <circle id="Oval-6" data-name="Oval" cx="3.337" cy="3.337" r="3.337" transform="translate(170.307 120.143)" fill="#cb8252"/>
        <circle id="Oval-7" data-name="Oval" cx="3.337" cy="3.337" r="3.337" transform="translate(53.51 170.199)" fill="#805333"/>
        <circle id="Oval-8" data-name="Oval" cx="3.337" cy="3.337" r="3.337" transform="translate(33.487 103.458)" fill="#cb8252"/>
      </g>
    </g>
    <path id="Trazado_814890" data-name="Trazado 814890" d="M41.985,19H38.577V13.063H33.528V19H30.1V4.781h3.428v5.645h5.049V4.781h3.408Zm5.605,0H44.28V8.434h3.311ZM46.36,4.2h3.477L47.122,7.262l-2.686,0Zm2.93,9.443a6.455,6.455,0,0,1,1.084-3.955A3.568,3.568,0,0,1,53.4,8.238a3.035,3.035,0,0,1,2.383,1.113V4h3.3V19H56.126l-.166-1.133A3.116,3.116,0,0,1,53.382,19.2a3.562,3.562,0,0,1-2.988-1.445A6.659,6.659,0,0,1,49.29,13.639Zm3.291.205q0,2.813,1.641,2.813a1.62,1.62,0,0,0,1.563-.918V11.715a1.576,1.576,0,0,0-1.543-.937q-1.523,0-1.65,2.461Zm14.766-2.432-1.084-.078a1.947,1.947,0,0,0-1.992.977V19H60.979V8.434h3.086l.107,1.357a2.548,2.548,0,0,1,2.314-1.553,3.209,3.209,0,0,1,.918.117ZM72,19H68.7V8.434H72Zm-3.5-13.291a1.469,1.469,0,0,1,.508-1.152,2.159,2.159,0,0,1,2.637,0,1.469,1.469,0,0,1,.508,1.152,1.469,1.469,0,0,1-.508,1.152,2.159,2.159,0,0,1-2.637,0A1.469,1.469,0,0,1,68.509,5.709ZM78.5,16.656a1.464,1.464,0,0,0,1.074-.376,1.379,1.379,0,0,0,.371-1.05H83.03a3.653,3.653,0,0,1-1.245,2.852A4.631,4.631,0,0,1,78.577,19.2a4.689,4.689,0,0,1-3.633-1.445,5.7,5.7,0,0,1-1.328-4v-.137a6.436,6.436,0,0,1,.591-2.827,4.3,4.3,0,0,1,1.7-1.885,5.081,5.081,0,0,1,2.637-.659,4.573,4.573,0,0,1,3.271,1.143,4.053,4.053,0,0,1,1.211,3.1H79.944a1.806,1.806,0,0,0-.4-1.26,1.382,1.382,0,0,0-1.074-.439q-1.279,0-1.494,1.631a11.508,11.508,0,0,0-.068,1.426,4.52,4.52,0,0,0,.381,2.207A1.319,1.319,0,0,0,78.5,16.656Zm5.508-3.037a6.236,6.236,0,0,1,.615-2.817A4.4,4.4,0,0,1,86.39,8.9a5.323,5.323,0,0,1,2.705-.664,4.858,4.858,0,0,1,3.74,1.47,5.64,5.64,0,0,1,1.367,4v.117a5.472,5.472,0,0,1-1.372,3.921,4.871,4.871,0,0,1-3.716,1.45,4.927,4.927,0,0,1-3.623-1.353,5.29,5.29,0,0,1-1.475-3.667Zm3.291.205a3.932,3.932,0,0,0,.459,2.148,1.529,1.529,0,0,0,1.357.684q1.758,0,1.8-2.705v-.332q0-2.842-1.816-2.842-1.65,0-1.787,2.451Zm13.887,2.207a.76.76,0,0,0-.439-.674,6.685,6.685,0,0,0-1.67-.527,7.615,7.615,0,0,1-2.031-.718,3.4,3.4,0,0,1-1.221-1.079,2.577,2.577,0,0,1-.42-1.455,2.92,2.92,0,0,1,1.2-2.4,4.948,4.948,0,0,1,3.145-.942,5.482,5.482,0,0,1,3.359.947,2.962,2.962,0,0,1,1.27,2.49h-3.3q0-1.27-1.338-1.27a1.326,1.326,0,0,0-.869.288.892.892,0,0,0-.352.718.819.819,0,0,0,.43.713,4.06,4.06,0,0,0,1.372.449,11.857,11.857,0,0,1,1.655.42,3.007,3.007,0,0,1,2.383,2.939,2.767,2.767,0,0,1-1.284,2.354,5.631,5.631,0,0,1-3.325.908,5.747,5.747,0,0,1-2.422-.488,4.05,4.05,0,0,1-1.66-1.328,3.007,3.007,0,0,1-.6-1.768h3.076a1.272,1.272,0,0,0,.488,1.069,2.009,2.009,0,0,0,1.2.337,1.58,1.58,0,0,0,1.011-.273A.875.875,0,0,0,101.185,16.031Z" transform="translate(1065.229 1584)" fill="#12263f"/>
    <g id="amazonas" transform="translate(1040.457 1648.459)">
      <g id="Grupo_1067529" data-name="Grupo 1067529" transform="translate(0 23.921)">
        <g id="Grupo_1067528" data-name="Grupo 1067528">
          <path id="Trazado_808858" data-name="Trazado 808858" d="M88.315,95.164l-4.105-18.1c-1-4.419-2.2-9.173-5.7-12.051-4.286-3.526-10.477-3.053-16-2.478s-11.786.83-15.847-2.953c-1.573-1.466-2.626-3.4-3.994-5.054a17.114,17.114,0,0,0-19.061-4.849,9.26,9.26,0,0,1-3.655,1.061,6.062,6.062,0,0,1-2.689-.908C13.009,47.457,9.885,43.529,6.236,40.3l-.055-.049A3.735,3.735,0,0,0,0,43.079V74.95L17.638,95.164H88.315Z" transform="translate(0 -39.323)" fill="#037e73"/>
        </g>
      </g>
      <g id="Grupo_1067534" data-name="Grupo 1067534" transform="translate(47.72 14.868)">
        <g id="Grupo_1067531" data-name="Grupo 1067531">
          <g id="Grupo_1067530" data-name="Grupo 1067530">
            <path id="Trazado_808859" data-name="Trazado 808859" d="M270.726,34.5a7.571,7.571,0,0,0-3.793-6.556,22.4,22.4,0,0,0-11.634-3.18c-3.8.08-7.733,1.23-11.31-.051-4.344-1.556-6.8-6.219-10.847-8.431-3.994-2.183-9.041-1.633-13.157.312s-7.5,5.117-10.81,8.236l-15.5,14.612a12.254,12.254,0,0,1-4.318,3.023c-3.629,1.2-7.483-1.133-11.307-1.03-2.857.077-5.592,1.521-8.442,1.308-6.034-.451-10.155-8-16.171-7.354-3.246.351-5.677,3.043-7.651,5.634A95.289,95.289,0,0,0,128.9,75.293l9.418,10.779,77.767-1.3,54.64-20.4Z" transform="translate(-128.902 -14.868)" fill="#01998d"/>
          </g>
        </g>
        <g id="Grupo_1067533" data-name="Grupo 1067533" transform="translate(130.383 10.213)">
          <g id="Grupo_1067532" data-name="Grupo 1067532">
            <path id="Trazado_808860" data-name="Trazado 808860" d="M492.535,81.746V51.87a7.571,7.571,0,0,0-3.793-6.556,23.8,23.8,0,0,0-7.648-2.859V88.129Z" transform="translate(-481.094 -42.455)" fill="#008b81"/>
          </g>
        </g>
      </g>
      <g id="Grupo_1067536" data-name="Grupo 1067536" transform="translate(0 55.263)">
        <g id="Grupo_1067535" data-name="Grupo 1067535">
          <path id="Trazado_808861" data-name="Trazado 808861" d="M118.836,253.522l11.876-12.406V209.54l-20.651-11.367-29.847,3.894-30.371-4.489-11-18.934.138-12.232c5.76-3.5,10-11.48,9.533-18.81-.594-9.378-8.691-15.479-18.068-16.073a18.968,18.968,0,0,0-3.836.144A7.993,7.993,0,0,1,19.3,128.7,12.606,12.606,0,0,0,0,128.269V245.427l.647,8.094H118.836Z" transform="translate(-0.001 -123.985)" fill="#80d261"/>
        </g>
      </g>
      <g id="Grupo_1067538" data-name="Grupo 1067538" transform="translate(0 176.191)">
        <g id="Grupo_1067537" data-name="Grupo 1067537">
          <path id="Trazado_808862" data-name="Trazado 808862" d="M103.942,456.409H5.771A5.771,5.771,0,0,1,0,450.638v11.441a5.771,5.771,0,0,0,5.771,5.771h98.171Z" transform="translate(0 -450.638)" fill="#68ca44"/>
        </g>
      </g>
      <g id="Grupo_1067540" data-name="Grupo 1067540" transform="translate(38.846 75.877)">
        <g id="Grupo_1067539" data-name="Grupo 1067539">
          <path id="Trazado_808863" data-name="Trazado 808863" d="M105.07,190.04l-.138,12.232.126.218.011-1.008a18.812,18.812,0,0,0,9.031-17.326,18.539,18.539,0,0,0-.851-4.488A18.867,18.867,0,0,1,105.07,190.04Z" transform="translate(-104.932 -179.668)" fill="#68ca44"/>
        </g>
      </g>
      <g id="Grupo_1067542" data-name="Grupo 1067542" transform="translate(42.307 64.607)">
        <g id="Grupo_1067541" data-name="Grupo 1067541">
          <path id="Trazado_808864" data-name="Trazado 808864" d="M252.5,268.884v-115.8l-2.424-3.863c-36.129,1.583-33.171,10.666-54.453,10.451-10.814-.109-14.394-7.642-28.508-8.464a37.457,37.457,0,0,0-26.342,8.7l-16.149,3.976-10.344,23.6,10.344,20.237,66.3,6.5,16.457,20.736-7.409,33.931H252.5Z" transform="translate(-114.28 -149.224)" fill="#80d261"/>
        </g>
      </g>
      <g id="Grupo_1067544" data-name="Grupo 1067544" transform="translate(147.521 64.372)">
        <g id="Grupo_1067543" data-name="Grupo 1067543">
          <path id="Trazado_808865" data-name="Trazado 808865" d="M429.069,148.824V260.409a5.771,5.771,0,0,1-5.771,5.771H402.556l-4.068,11.441h36.251a5.771,5.771,0,0,0,5.771-5.771V148.589C436.3,148.589,432.512,148.673,429.069,148.824Z" transform="translate(-398.488 -148.589)" fill="#68ca44"/>
        </g>
      </g>
      <g id="Grupo_1067546" data-name="Grupo 1067546" transform="translate(29.797 75.293)">
        <g id="Grupo_1067545" data-name="Grupo 1067545" transform="translate(0 0)">
          <path id="Trazado_808866" data-name="Trazado 808866" d="M158.51,249.018a19.023,19.023,0,0,1,8.819,5.686c2.564,3.028,5.376,11.706-.712,16.852-8.773,7.417-17.369,9.935-24.759,15.153h33.02l30.679-1.947a49.3,49.3,0,0,0,3.949-11.983c6.746-34.1-24.048-62.52-55.064-58.9-5.892.459-11.431,2.141-17.008,4.075-10.159,2.9-26.806,7.463-34.514-1.28-5.038-11.923,8.763-29.156,16.571-38.581H98.412c-10.034,10.9-18.494,24.446-17.892,40.017.9,19.872,19.914,30.81,36.8,32.071A101.791,101.791,0,0,0,144.669,249c4.562-.97,9.463-1.408,13.841.017Z" transform="translate(-80.489 -178.09)" fill="#62dbfb"/>
        </g>
      </g>
      <g id="Grupo_1067548" data-name="Grupo 1067548" transform="translate(96.149 181.962)">
        <g id="Grupo_1067547" data-name="Grupo 1067547" transform="translate(0 0)">
          <path id="Trazado_808867" data-name="Trazado 808867" d="M259.721,466.227l3.908,11.441h47.465a54.467,54.467,0,0,0,7.339-11.441Z" transform="translate(-259.721 -466.227)" fill="#01d0fb"/>
        </g>
      </g>
      <g id="Grupo_1067550" data-name="Grupo 1067550" transform="translate(31.705 172.105)">
        <g id="Grupo_1067549" data-name="Grupo 1067549" transform="translate(0 0)">
          <path id="Trazado_808868" data-name="Trazado 808868" d="M139.38,445.416a18.348,18.348,0,0,0-3.906.418,15.781,15.781,0,0,1-11.957-2.213,25.207,25.207,0,0,0-37.757,13.8,2.7,2.7,0,0,0,2.583,3.481h65.65a2.7,2.7,0,0,0,2.529-3.639A18.328,18.328,0,0,0,139.38,445.416Z" transform="translate(-85.641 -439.601)" fill="#008b81"/>
        </g>
      </g>
      <g id="Grupo_1067552" data-name="Grupo 1067552" transform="translate(31.705 181.962)">
        <g id="Grupo_1067551" data-name="Grupo 1067551" transform="translate(0 0)">
          <path id="Trazado_808869" data-name="Trazado 808869" d="M150.856,466.227H89.871a25.125,25.125,0,0,0-4.11,7.961,2.7,2.7,0,0,0,2.583,3.481h65.65a2.7,2.7,0,0,0,2.529-3.639A18.362,18.362,0,0,0,150.856,466.227Z" transform="translate(-85.641 -466.227)" fill="#037e73"/>
        </g>
      </g>
      <g id="Grupo_1067554" data-name="Grupo 1067554" transform="translate(127.746 82.702)">
        <g id="Grupo_1067553" data-name="Grupo 1067553">
          <path id="Trazado_808870" data-name="Trazado 808870" d="M356.7,202.007a12.319,12.319,0,0,1,2.623.281,10.6,10.6,0,0,0,8.029-1.486,16.926,16.926,0,0,1,25.354,9.265,1.812,1.812,0,0,1-1.735,2.337H346.885a1.81,1.81,0,0,1-1.7-2.444A12.307,12.307,0,0,1,356.7,202.007Z" transform="translate(-345.07 -198.102)" fill="#008b81"/>
        </g>
      </g>
      <g id="Grupo_1067556" data-name="Grupo 1067556" transform="translate(101.499 126.929)">
        <g id="Grupo_1067555" data-name="Grupo 1067555">
          <path id="Trazado_808871" data-name="Trazado 808871" d="M296.049,327.848a2.844,2.844,0,0,1-1.619-.5,23.438,23.438,0,0,0-16.91-3.729,2.86,2.86,0,0,1-.977-5.637,28.884,28.884,0,0,1,21.13,4.652,2.861,2.861,0,0,1-1.624,5.218Z" transform="translate(-274.171 -317.569)" fill="#01d0fb"/>
        </g>
      </g>
      <g id="Grupo_1067558" data-name="Grupo 1067558" transform="translate(132.378 147.526)">
        <g id="Grupo_1067557" data-name="Grupo 1067557" transform="translate(0 0)">
          <path id="Trazado_808872" data-name="Trazado 808872" d="M360.6,395.843a2.863,2.863,0,0,1-2.752-3.647,26.613,26.613,0,0,0-.139-15.275,2.86,2.86,0,1,1,5.461-1.7,32.317,32.317,0,0,1,.179,18.551A2.862,2.862,0,0,1,360.6,395.843Z" transform="translate(-357.582 -373.207)" fill="#01d0fb"/>
        </g>
      </g>
      <g id="Grupo_1067560" data-name="Grupo 1067560" transform="translate(56.239 127.682)">
        <g id="Grupo_1067559" data-name="Grupo 1067559">
          <path id="Trazado_808873" data-name="Trazado 808873" d="M163.607,326.906a25.718,25.718,0,0,1-9.85-1.77,2.86,2.86,0,1,1,2.037-5.345c4.1,1.563,6.853,1.465,11.019,1.316l.321-.011a2.86,2.86,0,1,1,.2,5.717l-.32.011C165.831,326.866,164.71,326.906,163.607,326.906Z" transform="translate(-151.915 -319.602)" fill="#01d0fb"/>
        </g>
      </g>
    </g>
  </g>
</svg>
