<svg xmlns="http://www.w3.org/2000/svg" width="608.923" height="264.192" viewBox="0 0 608.923 264.192">
  <g id="Grupo_1070759" data-name="Grupo 1070759" transform="translate(103.923 -290.698)">
    <g id="Grupo_1070749" data-name="Grupo 1070749" transform="translate(338.182 290.698)">
      <path id="Trazado_810962" data-name="Trazado 810962" d="M4613.9,919.747c-5.066-17.189-11.9-27.393-4.192-46.071s14.395-58.158,10.847-77.987c-3.259-18.21-6.44-24.35-12.2-38.566-1.722-4.248-3.078-7.248-1.374-8.386,3.061-2.044,15.27,37.436,15.93,40.958,5.161,27.529-1.458,56.561-8.644,82.909-2.852,10.454-6.969,12.988-.633,32.947s9.5,31.68,11.72,50.687c2.205,18.894-7.738,9.71-7.956-4.936a189.088,189.088,0,0,0-3.5-31.556Z" transform="translate(-4556.688 -710.115)" fill="#79b55c" fill-rule="evenodd"/>
      <path id="Trazado_810963" data-name="Trazado 810963" d="M4421.2,1645.762c5.36-.915,9.478,4.608,9.109,9.25-.263,3.277-7.516,20.372-2.379,23.452a1.41,1.41,0,0,1,.567,2.086c-7.441-4.357-13.523-4.084-17.06-16.588-1.422-5.023-.57-11.564,4.455-15.167s5.308-3.033,5.308-3.033Z" transform="translate(-4377.761 -1531.619)" fill="#2a7806" fill-rule="evenodd"/>
      <path id="Trazado_810964" data-name="Trazado 810964" d="M4466.8,1603.087c-3.7-3.792-8.245-6.92-12.984-6.73a16.9,16.9,0,0,0-7.746,2.085l2.817,4.456a19.08,19.08,0,0,1-3.127-2.181c-.38-.569-2.18,1.233-1.707,2.465s3.7,4.645,3.7,4.645-3.7-1.991-4.265-3.033-2.087,2.844-.76,4.739,3.035,4.265,3.035,4.265-3.887-2.749-3.982-3.6-1.234,3.412.285,5.4a52.85,52.85,0,0,1,3.223,5.023s-3.792-4.739-3.6-2.748,2.749,6.256,3.413,7.962-2.464-2.086-2.464-2.086,2.845,6.352,4.076,6.825-1.138.379-2.938-1.9-2.843-9.763-3.224-10.9-2.274,3.886-2.274,3.886.948-5.307,1.705-8.341.95-5.5.193-5.308-3.982,5.5-3.982,5.5,1.707-4.835,3.507-7.11c.783-.987,1.1-2.539.458-2.214-.834.423-2.889,3.038-3.588,4.11-1.23,1.9.761-3.413,3.605-5.5s2.083-5.023,8.625-6.825c5.646-1.554,15.3.3,18.117,5.213.448.778-.226.923-.109,1.9Z" transform="translate(-4400.986 -1485.626)" fill="#79b55c" fill-rule="evenodd"/>
      <path id="Trazado_810965" data-name="Trazado 810965" d="M4876.789,2525.308c.891,5.144,1.421,11.975.536,16.055s-8.518,8.072-8.518,8.072,7.361-12.773,7.361-17.651.621-6.476.621-6.476Z" transform="translate(-4797.2 -2337.229)" fill="#84e358" fill-rule="evenodd"/>
      <path id="Trazado_810966" data-name="Trazado 810966" d="M4810.843,2399.11c2.84-.709,7.894-1.152,10.111,1.331a15.305,15.305,0,0,1,3.1,13.127,73.21,73.21,0,0,1-3.1,9.668s2.4-7.185.8-9.313a116,116,0,0,1-6.3-10.29c-.621-1.33-4.611-4.524-4.611-4.524Z" transform="translate(-4744.113 -2221.144)" fill="#2a7806" fill-rule="evenodd"/>
      <path id="Trazado_810967" data-name="Trazado 810967" d="M4642.218,2400.7c1.774-2.75,13.305-2.04,15.967-1.774a32.945,32.945,0,0,0,5.5,0s-2.57.532-1.152,1.33a21.778,21.778,0,0,0,2.573,1.242s-2.749-1.152-1.953.355,5.412,5.322,5.412,5.322l-3.018-1.331,1.954,5.412s-3.726-6.564-5.324-8.6-6.385-3.459-9.668-3.37-9.138,1.508-9.491,3.193-.8-1.774-.8-1.774Z" transform="translate(-4589.679 -2221.226)" fill="#79b55c" fill-rule="evenodd"/>
      <path id="Trazado_810968" data-name="Trazado 810968" d="M4957.477,1508.119c15.3,9.713,17.055,21.362,10.262,33.124-7.9,13.678-11.943,6.3-21.451,19.609-.743-7.041-8.34-21.5-7.591-34.775.393-6.979,3.257-17.305,10.292-18.087a34.37,34.37,0,0,1,8.488.129Z" transform="translate(-4861.159 -1405.352)" fill="#2a7806" fill-rule="evenodd"/>
      <path id="Trazado_810969" data-name="Trazado 810969" d="M4810.793,1321.941c1.072-1.848-.614-3.07.577-4.1a15.528,15.528,0,0,1,17.265-1.554c5.926,3.571,8.769,11.338,12.048,15.449,3.665,4.59,7.664,6.193,10.508,13.128,1.421,3.465-.517.788-2.121-2.578s-8.229-8.77-7.713-7.226,8.934,15.464,8.677,18.422-1.5-3.045-3.69-6.518-5.022-11.217-6.05-10.316,1.509,8.346,3.693,14,1.759,9.155,1.243,11.213,1.05-1.591-1.651-8.665-3.1-12.264-4.125-8.791,1.7,13.188,1.833,17.562-.665-3.524-2.272-8.427c-.864-2.649-2.155,2.512-2.531,7.789a50.864,50.864,0,0,0,.423,6.051,28.553,28.553,0,0,1-.193,4.4c-.384,3.6.129-4.361-1.028-6.033s-2.63,9.728-3.658,10.5.9-3.6,1.8-9.26-2.572-.772-3.859.385,1.675-3.858,4.118-5.4c1.034-.653,1.564-3.335,2.051-5.5.664-2.951,1.8-6.754.225-5.473-2.729,2.222-6.473,9.166-6.52,8.791s2.027-5.574,4.472-7.76,4.7-10.918,2.124-9.889c-4.435,1.774-10,10.1-9.255,7.985,1.753-4.967,9.583-8.805,10.5-11.637.737-2.278-.105-4.839-1.425-4.839-2.7,0-5.647,3.632-6.8,4.918s.257-1.93,2.832-4.244c1.544-1.391,3.486-2.355,3.842-3.883.391-1.683-.912-3.912-1.343-4.967-2.643-6.476-13.446-16.214-23.991-3.531Z" transform="translate(-4744.069 -1228.211)" fill="#79b55c" fill-rule="evenodd"/>
      <path id="Trazado_810970" data-name="Trazado 810970" d="M4242.208,2332.945c-1.691,8.449-.872,38.87,9.6,39.744,2.68.224,1.676,1.563-1.9,1.786-12.88.8-27.75-12.032-25.311-25.966,1.493-8.518,9.368-17.761,17.609-15.564Z" transform="translate(-4206.969 -2160.756)" fill="#2a7806" fill-rule="evenodd"/>
      <path id="Trazado_810971" data-name="Trazado 810971" d="M4294.18,2324.224a20.579,20.579,0,0,0-16.015-3.5c-5.916,1.228-8.774,3.591-8.774,5.043s-2.543,4.605-2.878,7.174,1.877,6.024,4.668,7.588,5.7,5.8,5.7,5.8-5.249-5.247-6.811-5.247-2.456-3.906-2.456-1.451.78,4.355,3.125,5.582a15.4,15.4,0,0,1,3.8,2.792s-4.131-2.792-5.022-2.233,1.785,6.028,4.017,6.475,3.351.558,4.577.893-4.354.112-5.023,0,2.455,3.573,4.019,4.354,6.586,2.232,6.253,3.015-4.912-1-6.81-2.121-5.807-6.252-6.476-7.7-1.23,2.233.221,3.906-2.23.112-2.789-4.465-1.786-10.047-2.233-13.062-2.68,5.917-1.564,8.931,2.232,5.582,1.341,4.466-3.015-4.577-2.232-10.495-.447-2.568-1.007-1.116-.264-2.923,3.083-6.941,2.836-5.785,1.831-4.892,1.45-5.358,11.5-7.257,16.968,1.34,15.966,4.466Z" transform="translate(-4241.079 -2148.462)" fill="#79b55c" fill-rule="evenodd"/>
      <path id="Trazado_810972" data-name="Trazado 810972" d="M4850.955,706.053c-.435,4.874,3.393,10.53,11.488,13.75,7.2,2.867,37.688,1.7,38.116,13.229.174,4.7.525,5.047,4.177-.871s7.312-16.187,1.567-23.323-12.531-3.829-21.236-8.789-23.844-9.921-34.113,6Z" transform="translate(-4780.819 -661.167)" fill="#2a7806" fill-rule="evenodd"/>
      <path id="Trazado_810973" data-name="Trazado 810973" d="M4726.206,752.38c.086-10.443,10.967-22.714,16.969-25.412s16.623-2.263,20.454-1.479,17.056,9.834,17.839,13.054,4.961,10.008,5.919,11.14.782,1.566-.436.87-6.7-9.573-7.051-11.575-5.568-6-5.568-4.438,3.218,13.141,4.525,14.62-2.088-.522-3.4-6.527-3.829-9.66-5.395-9.921-1.48,4.178-.786,6.179-1.912-3.307-2-5.831-8-6.005-8.265-4.787,4.091,12.01,6.265,14.446-4.526-3.046-5.917-8.789-4.091-6.875-7.833-6.875-4.353,1.393-2.7,5.135,4.872,8.79,6.439,9.834-3.481-.87-6.091-7.049-4.961-6.527-6.7-5.57-8.79,6.44-11.661,13.315-2.786,13.576-3.308,12.184a13.032,13.032,0,0,0-1.307-2.524Z" transform="translate(-4666.599 -688.348)" fill="#79b55c" fill-rule="evenodd"/>
      <path id="Trazado_810974" data-name="Trazado 810974" d="M5043.4,708.353c-5.651-6.473-12.322-3.446-20.81-8.286-5.532-3.155-13.674-6.308-21.507-4.089a30.522,30.522,0,0,1,8.541.7c6,1.566,12.185,9.312,18.71,8.876a34.111,34.111,0,0,1,15.066,2.8Z" transform="translate(-4918.341 -661.186)" fill="#84e358" fill-rule="evenodd"/>
      <path id="Trazado_810975" data-name="Trazado 810975" d="M4060.13,1110.862c-4.667,2.034-1.675,4.068-1.556,7.179s-.359,13.283-10.65,18.188-19.983,8.5-22.855,13.522-3.95,7.539-4.187,11.009-2.874-1.915-2.874-8.257,8.376-28.12,17.592-35.06,21.9-10.77,24.53-6.581Z" transform="translate(-4018.009 -1040.238)" fill="#2a7806" fill-rule="evenodd"/>
      <path id="Trazado_810976" data-name="Trazado 810976" d="M4097.915,1116.512c-.153.693.445,3.569.139,3.124-2.35-3.406-7.379-7.03-11.984-7.312-5.864-.359-11.247.239-12.685,2.034s-2.033,7.06-4.187,11.607.24-.838.359-3.829,2.872-7.061-.718-5.5-6.343,6.7-8.617,12.205-4.786,8.137-5.864,8.855,3.709-4.427,4.428-7.539a31.606,31.606,0,0,1,3.47-9.094c1.794-3.111-4.547,1.078-5.863,3.59s-5.862,11.368-7.539,14.479-3.949,6.7-3.949,6.7,2.633-5.983,5.625-11.727,4.786-9.094,3.708-8.975-10.051,11.129-11.008,13.282-1.8,12.086-2.514,13.163.6-8.615.479-9.931-3.351,6.7-3.709,8.137a57.2,57.2,0,0,0-.358,10.41c.239,2.394-1.316-6.7-.718-9.812a36.107,36.107,0,0,1,5.144-12.445c2.993-4.547,7.66-7.778,6.1-7.778s-4.308,2.274-5.265,3.47-.479-2.633,5.743-5.265,9.693-9.693,14.6-10.77-3.948-.6-8.136,2.393c-3.586,2.561-2.935.326,1.152-2.367a56.352,56.352,0,0,1,13.172-5.827,27.312,27.312,0,0,1,9.847-1.139c9.812.6,18.068.958,19.144,5.864Z" transform="translate(-4034.735 -1041.58)" fill="#79b55c" fill-rule="evenodd"/>
      <path id="Trazado_810977" data-name="Trazado 810977" d="M4088.822,1130.98c5.115-14.164,18.959-27.939,35-24.473-15.667,4.486-26.253,10.644-35,24.473Z" transform="translate(-4082.862 -1037.348)" fill="#84e358" fill-rule="evenodd"/>
      <path id="Trazado_810978" data-name="Trazado 810978" d="M4620.116,546.912c-4.254-11.038,1.151-18.051,7.132-18.856s15.4-1.15,17.014-3.219,2.646-1.035.115,4.139-5.863,7.473-13.452,9.658-9.772,2.414-10,5.634-.806,2.645-.806,2.645Z" transform="translate(-4568.046 -504.215)" fill="#79b55c" fill-rule="evenodd"/>
      <path id="Trazado_810979" data-name="Trazado 810979" d="M4262.933,784.446c-5.082-4.216-4.107-4.865-7.135-3.567s-8.974,10.7-14.056,15.351-15.351,6.27-15.351,6.27,4.76-13.514,9.191-16.757,10.811-7.243,14.918-7.135,9.621,0,12.433,5.838Z" transform="translate(-4208.853 -737.54)" fill="#79b55c" fill-rule="evenodd"/>
      <path id="Trazado_810980" data-name="Trazado 810980" d="M4268.282,765.173c-5.082-4.216-4.108-4.865-7.135-3.567s-8.973,10.7-14.055,15.352c-4.416,4.042-12.758,5.8-14.858,6.184,16.665-8.686,10.021-22.831,22.079-25.333,4.219-.876,10.6.366,13.97,7.365Z" transform="translate(-4214.202 -718.268)" fill="#84e358" fill-rule="evenodd"/>
      <path id="Trazado_810981" data-name="Trazado 810981" d="M4374,337.115c-2.406-5.323.837-12.906,3.491-20.053,2.812-7.567,6.163-16.757,5.082-19.243s-18.488-5.081-22.485-6.7-1.84,1.73-2.919,5.513-8.436,21.838-9.19,28.324,9.3,5.081,16.216,7.135a17.155,17.155,0,0,1,8.408,4.98c.563.559,1.941,1.251,1.4.046Z" transform="translate(-4320.166 -290.698)" fill="#2a7806" fill-rule="evenodd"/>
      <path id="Trazado_810982" data-name="Trazado 810982" d="M4414.644,362c-2.69-4.093-2.322-6.085-4.906-6.892-3.459-1.081-5.839-1.514-7.893-1.081s.864-2.054,6.272-.216,2.595-1.946-.326-2.487-7.785-.432-11.351-.973.216-.433,3.027-.433,11.244,1.406,11.244.649-3.569-4.216-9.19-4-7.244-.324-7.566-1.405.538.541,3.35.757,9.838-.54,11.784.757,1.187-1.946.107-2.919-7.136-3.568-10.271-3.675-2.053-.973.542-.757-2.812-2.486-2.27-4.432.216,1.189,2.808,3.135,7.568,2.162,9.19,3.351-1.3-6.595-2.812-8-5.945-2.054-6.811-3.892.109-.216,1.947.757,4.431,1.946,4.108.973-2.921-6.271-2.921-6.271-2.377-1.3-2.377-2.162,2.161,1.622,1.946.324-1.729-3.784-1.514-5.081,2.485,4.432,3.242,6.594,2.7-.324,2.055-2.162,1.406.649.432,3.459.543,4.541.649,5.514,2.918-4,2.595-5.946-.863-6.27-.863-6.27,1.3.432,1.838,6.379-3.244,5.3-1.623,9.622,1.945,8.54,3.243,5.622,2.811-9.3,2.487-12.108a37.149,37.149,0,0,0-1.838-7.46c-.433-1.081,2.161,2.919,2.592,6.919s-1.079,6.919-1.727,11.676a26.015,26.015,0,0,0-.109,7.243c0,1.513,4.106-6.378,4.325-12.757a79.51,79.51,0,0,0-.108-11.351,39.518,39.518,0,0,1,1.3,6.919c.542,4.216,1.947-.757,2.27-2.919s.867.432-.216,4.757-1.328,5.089-3.892,11.676c-2.122,5.452-4.382,10.813-1.185,18.4,3.315,7.867,2,5.63-1.584.168Z" transform="translate(-4362.254 -315.551)" fill="#79b55c" fill-rule="evenodd"/>
    </g>
    <g id="Grupo_1070750" data-name="Grupo 1070750" transform="translate(-103.923 315.157)">
      <path id="Trazado_810983" data-name="Trazado 810983" d="M0,640.01a75.881,75.881,0,0,1,6.056,6.566c7.38,8.837,21.836,26.884,25.661,30.947s6.923,9.4,13.542,12.324S69.042,700.294,78.2,708.1s19.467,13.443,22.937,12.241,9.649-6.094,13.865-6.686a16.641,16.641,0,0,0,7.669-3.673l9.649-2.674s6.128,3.149,8.684,3.064,10.614,1.846,15.032,3.286,9.768.221,12.206-2.759-2.2-8.329-5.518-10.733a29.978,29.978,0,0,0-6.686-3.607c5.262-3.747,7.186-6.388,2.855-11.316a14.031,14.031,0,0,0-3.971-3.276,8.869,8.869,0,0,0-3.335-.864,12.5,12.5,0,0,0-11.257-4.859c-7.448.745-9.717,5.417-9.717,5.417s-2.59-3.674-6.6-4.469-7.093-.83-8.955-2.353-6.416-4.318-9.09-7.128-6.144-8.448-9.919-10.293-1.9-5.282-3.47-9.057-1.98-7.838,5.942-.423,9.022,6.45,15.15,13.019,19.044,7.5,24.6,4.894,7.923-9.683,4.3-11.714-9.192-4.723-15.065-10.463-11.02-5.909-16.335-11.19-11.07-11.546-16.064-15.322-25.628-16.93-29.776-19.08-17.47-3.725-24.241-6.469-7.889-.237-15.032-3.285C21.539,586.4,11.081,583.706,0,581.3V640.01Z" transform="translate(0 -581.303)" fill="#fed3a1" fill-rule="evenodd"/>
      <path id="Trazado_810984" data-name="Trazado 810984" d="M144.182,656.364a3.291,3.291,0,0,0-1.617-2.23c-3.623-2.032-9.192-4.724-15.066-10.463s-11.02-5.909-16.335-11.191-11.07-11.546-16.064-15.321-25.628-16.93-29.776-19.08-17.47-3.725-24.241-6.469-7.889-.237-15.032-3.285C21.539,586.4,11.081,583.7,0,581.3v18.29c7.851,2.261,13.537,3.785,15.475,4.24,7.444,1.746,13.569-5.233,21.669-3.894s21.86.077,26.646,1.2,24.185,14.086,29.128,16.928,19.623,19.187,25.63,22.278,13.425,12.124,18.335,12.714a14.305,14.305,0,0,1,7.3,3.308Z" transform="translate(0 -581.301)" fill="#ffd9ad" fill-rule="evenodd"/>
      <path id="Trazado_810985" data-name="Trazado 810985" d="M348.724,1692.684c.986,1.152,1.8,2.073,2.366,2.679,3.825,4.063,6.923,9.4,13.542,12.325a229.109,229.109,0,0,1,23.033,11.417c2.146.211,3.373.326,3.362.327,9.1,3,12.572,5.22,16.043,4.019s14.643-2.319,17.488-4.654,9.852-4.062,12.629-7.076,11.172-6.759,12.347-8.263c1.542-1.442-.916-4.73-3.445-7.4l-1.806,1.315c-6.906,5.033-13.161,10.316-17.329,11.6-4.932,1.512-10.882,7.365-20.536,6.246s-13.208-3.861-19.354-5.3c-5.449-1.277-24.52-9.646-38.339-17.225Z" transform="translate(-319.373 -1599.143)" fill="#f7ca99" fill-rule="evenodd"/>
      <path id="Trazado_810986" data-name="Trazado 810986" d="M923.028,1754.158c.173.144.344.286.513.43,9.158,7.8,19.466,13.442,22.937,12.24s9.649-6.094,13.865-6.686a16.643,16.643,0,0,0,7.669-3.672l2.407-.667a15.557,15.557,0,0,1,1.115-1.515c3.881-4.429,7.714-4.445,11.14-8.433,4.009-4.666,11.027-9.29,14.312-14.14.975-1.439.49-2.893-.116-4.2a12.592,12.592,0,0,0-4.318-3.545c-3.323,10.354-16.381,21.895-18.379,23.617-2.182,1.881-13.638,8.985-16.742,11.086s-11.965,7.419-25.324.371c-3.357-1.772-6.4-3.415-9.077-4.882Z" transform="translate(-845.34 -1627.791)" fill="#f7ca99" fill-rule="evenodd"/>
      <path id="Trazado_810987" data-name="Trazado 810987" d="M0,988.853a75.83,75.83,0,0,1,6.056,6.566c5.085,6.089,13.527,16.547,19.539,23.794a155.147,155.147,0,0,1-11.472-28.9c-3-10.9-8.82-24.347-14.122-28.106v26.648Z" transform="translate(0 -930.146)" fill="#f7ca99" fill-rule="evenodd"/>
      <path id="Trazado_810988" data-name="Trazado 810988" d="M912.7,1733.475a8.661,8.661,0,0,0-2.392,2.694,13.163,13.163,0,0,0-3.9-3.447c2.53,2.674,4.988,5.963,3.445,7.4-1.175,1.5-9.57,5.25-12.347,8.263s-9.785,4.74-12.629,7.075-14.017,3.453-17.488,4.654-6.94-1.016-16.042-4.018c.259-.005,1.251,1.054,10.5,5.7a32.588,32.588,0,0,0,17.823,3.353s10.921-7.777,18.8-9.651,18.131-15.6,16.732-18.51l-2.507-3.522Z" transform="translate(-779.691 -1635.811)" fill="#f5bc8c" fill-rule="evenodd"/>
      <path id="Trazado_810989" data-name="Trazado 810989" d="M1647.956,2057.323a7.943,7.943,0,0,0,2.3.4c2.556-.084,10.614,1.846,15.032,3.286s9.768.221,12.205-2.759c1.258-1.537.633-3.7-.722-5.771-3.26,2.911-8.311,5.52-14.064,3.176-5-2.038-9.755.006-14.753,1.666Z" transform="translate(-1509.254 -1928.657)" fill="#f5bc8c" fill-rule="evenodd"/>
      <path id="Trazado_810990" data-name="Trazado 810990" d="M1482.73,1794.442l7.524-2.085.02.01a15.175,15.175,0,0,1,3.052-.965,27.781,27.781,0,0,0,11.827-5.9,78.56,78.56,0,0,1,6.779-4.68,16.751,16.751,0,0,1,3.966-.666c3.738-3.042,4.68-5.6.928-9.863a14.022,14.022,0,0,0-3.971-3.276,8.877,8.877,0,0,0-3.335-.864l-.058-.082c.607,1.311,1.091,2.765.116,4.2-3.285,4.851-10.3,9.475-14.312,14.141-3.425,3.988-7.258,4-11.14,8.433l-1.4,1.593Z" transform="translate(-1357.934 -1666.353)" fill="#f5bc8c" fill-rule="evenodd"/>
      <path id="Trazado_810991" data-name="Trazado 810991" d="M1743.95,1775.654a3.509,3.509,0,0,1-.224,3.4,34.124,34.124,0,0,1-5.329,5.753c3.941-.432,10.712.143,11.4-1.8.757-2.133.659-4.707-5.849-7.348Z" transform="translate(-1592.081 -1675.13)" fill="#fed3a1" fill-rule="evenodd"/>
      <path id="Trazado_810992" data-name="Trazado 810992" d="M387.787,920a7.9,7.9,0,0,1-3.481-1.411c-1.862-1.524-6.416-4.318-9.09-7.128s-6.144-8.448-9.919-10.293-1.9-5.282-3.47-9.057-1.98-7.838,5.942-.423,9.022,6.45,15.15,13.018,19.044,7.5,24.6,4.895c4.986-2.341,7.4-8.284,5.225-10.944-.077.042-.154.085-.23.13-5.619,3.364-11.445-5.862-12.762-5.03s-10.977,4.074-8.722-1.4.971-7.8-2.5-7.457-4.11-.815-8.757-5.255-8.114-11.1-12.432-13.995-9.624-3.417-15.069-1.821S316.1,852.378,310.95,848.164s-13.908,11.548-12.226,16.109,2.115,3.641-2.758,5.7.069,7.7,6.329,9,12.415,8.567,7.542,10.63.642,1.162,8.635,5.792,1.63,5.792-4.648,13.074,2.618,3.416,15.156.937,16.941,10.041,13.126,10.423-14.289,7.733-13.951,11.553c10.833-6.048,20.465-7.182,24.646-4.693s6.822,4.96,9.023,3.031,9.531-2.149,9.531-2.149,9.413-5.044,13.413-6.347c-2.277.553-.46-.1,3.019-1.229Z" transform="translate(-269.25 -825.054)" fill="#f7ca99" fill-rule="evenodd"/>
      <path id="Trazado_810993" data-name="Trazado 810993" d="M644.776,1142.538a7.907,7.907,0,0,1-3.481-1.411c-1.862-1.524-6.416-4.317-9.09-7.128s-6.145-8.447-9.92-10.293-1.9-5.282-3.47-9.057-1.98-7.838,5.942-.423,9.022,6.45,15.15,13.019,19.044,7.5,24.6,4.894c3.982-1.87,6.326-6.036,6-8.994a71.569,71.569,0,0,0-7.509,1.042c-14.314,2.769-16.057-9.89-20.076-10.833s-10.168-2.855-12.826-9.6-10.2-12.758-10.2-12.758-4.013,7.069-9.45,8.15-33.21-11.086-35.283-8.274,2.058,11.32,5.846,19.276-3.595,5.282,1.06,11.556-3.749,9.959-3.749,9.959a30.735,30.735,0,0,1,12.156.029,11.677,11.677,0,0,1,6.945,3.029c2.835,1.776,5.056,3.4,7.906,2.332,4.648-1.737,13.741,3.694,21.333,5.474,4.684,1.1,5.279,3.571,2.384,7.223,2.245-1.184,9.374-4.889,12.719-5.98-2.276.553-.459-.1,3.019-1.229Z" transform="translate(-526.24 -1047.593)" fill="#f5bc8c" fill-rule="evenodd"/>
      <path id="Trazado_810994" data-name="Trazado 810994" d="M1157.259,1360.9c.353.312.724.65,1.116,1.018,7.922,7.415,9.023,6.45,15.15,13.019s19.044,7.5,24.6,4.894a10.717,10.717,0,0,0,1.491-.855c-11.328,2.405-18.272-.974-21.065-3.65a9.067,9.067,0,0,1-1.429-10.741c1.659-2.482-.64-.329-3.019,2.162-1.747,1.832-11.688-3.1-16.841-5.847Z" transform="translate(-1059.857 -1295.283)" fill="#e7a97c" fill-rule="evenodd"/>
      <path id="Trazado_810995" data-name="Trazado 810995" d="M509.785,1577.4c7.839-5.4,19.181-6.914,25.071-4.4a31.041,31.041,0,0,1,6.486,3.688c7.086,5.344-1.258-4.3-8.535-5.826-6.11-1.28-20.783.979-23.022,6.536Z" transform="translate(-466.878 -1487.257)" fill="#e7a97c" fill-rule="evenodd"/>
      <path id="Trazado_810996" data-name="Trazado 810996" d="M745.08,1602.462c2.3.576,8.51,3.365,15.384,5.313,4.506,1.277,9.842,2.223,13.093,2.923,4.113.887,3.815-1.552,6.5-4.626.532.4,1.068.8,1.589,1.172a75.376,75.376,0,0,1-9.772,11.824,37.51,37.51,0,0,0-4.9.594,12.5,12.5,0,0,0,4.8-3.9c2.107-2.708,3.206-2.894.355-3.283a113.332,113.332,0,0,1-17.114-4.3c-9.139-2.868-9.943-5.72-9.943-5.72Zm-13.016,19.245c10.833-6.048,18.406-5.654,21.936-3.552s5.028,3.42,6.805,3.686c-1.449-2.146-6.39-6.192-11.707-6.478-4.517-.242-13.064,1.242-17.035,6.344Z" transform="translate(-670.449 -1516.514)" fill="#e7a97c" fill-rule="evenodd"/>
      <path id="Trazado_810997" data-name="Trazado 810997" d="M782.5,1465.507c2.217.813,16.953,3.114,25.316,1.253,4.572-1.017,4.38.618.962,1.751-2.833.939-7.8,1.027-12.441.62-10.247-.9-14.142-3.127-13.837-3.624Z" transform="translate(-716.622 -1391.086)" fill="#e7a97c" fill-rule="evenodd"/>
      <path id="Trazado_810998" data-name="Trazado 810998" d="M391.774,1069.693s11.477,8.77,15.59,14,11.91,19.515,15.81,21.331-1.347-.834-4.375-6.087-6.817-13.713-12.773-18.99a149.067,149.067,0,0,0-15.3-11.823c-1.1-.542,1.052,1.57,1.052,1.57Z" transform="translate(-357.548 -1027.068)" fill="#e7a97c" fill-rule="evenodd"/>
      <path id="Trazado_810999" data-name="Trazado 810999" d="M547.831,1355.432c5.62,1.49,12.233,8.113,14.168,10.039s-2.784-1.357-5.482-3.978-11.333-6.159-8.686-6.062Z" transform="translate(-501.266 -1290.275)" fill="#e7a97c" fill-rule="evenodd"/>
      <path id="Trazado_811000" data-name="Trazado 811000" d="M549.66,990.958c4.4,7.309,13.09,18.835,19.556,24.125,8.379,6.856,17.964,11.6,23.007,11.64s-2.542,2.516-15.026-4.387-26.543-25.248-29.683-32.042c-4.76-10.3.587-1.927,2.146.664Z" transform="translate(-499.664 -951.287)" fill="#e7a97c" fill-rule="evenodd"/>
      <path id="Trazado_811001" data-name="Trazado 811001" d="M935.4,1150.72c7.635,2.828,11.313,5.327,13.531,3.567s5.869-7.9,4.651-13.248.606,1.985-.894,5.611-2.665,6.517-6.407,6.208-10.477-3.431-10.882-2.138Z" transform="translate(-856.673 -1092.196)" fill="#e7a97c" fill-rule="evenodd"/>
      <path id="Trazado_811002" data-name="Trazado 811002" d="M991.955,1844.887s.1-5.823,5.519-6.364.814,1.177-1.059,1.518-3.541,2.133-4.46,4.846Z" transform="translate(-908.466 -1732.611)" fill="#f5bc8c" fill-rule="evenodd"/>
      <path id="Trazado_811003" data-name="Trazado 811003" d="M1711.529,1908.35c-.5-.258-1.076-1.541-.094-3.176s5.738-4.094,7.083-4.619,8.053-1.894,8.89-2.481-1.008,2.783-2.748,3.544-5.768,2.392-7.489,3.067-2.734,2.286-5.642,3.666Z" transform="translate(-1566.899 -1787.183)" fill="#fae3c7" fill-rule="evenodd"/>
      <path id="Trazado_811004" data-name="Trazado 811004" d="M1656.521,1805.293c-.581,2.014-1.565,1.665-3.082,2.152a18.5,18.5,0,0,0-7.907,4.2c-3.01,2.871-3.309,6.59-2.986,7.312s12.559-10.5,13.35-11.533a3.034,3.034,0,0,0,.625-2.129Z" transform="translate(-1504.204 -1702.274)" fill="#fae3c7" fill-rule="evenodd"/>
      <path id="Trazado_811005" data-name="Trazado 811005" d="M1397.569,1837.224c-.526-.68,1.483-3.033,3.509-4.289a36.738,36.738,0,0,1,6.034-3.3c1.161-.3,1.759.191,2.557-.073s-6.918,5.912-12.1,7.666Z" transform="translate(-1279.864 -1724.47)" fill="#fae3c7" fill-rule="evenodd"/>
      <path id="Trazado_811006" data-name="Trazado 811006" d="M1622.4,1722.293c-.839,5.035-5.72,7.416-8.2,4.9s-1.3-4.628,2.342-5.137a13.884,13.884,0,0,1,5.86.237Z" transform="translate(-1477.132 -1625.88)" fill="#ffd9ad" fill-rule="evenodd"/>
      <path id="Trazado_811007" data-name="Trazado 811007" d="M1193.071,1731.285c.73-3.111-11.791,3.2-15.914,5.519s-5.737,2.832-6.749,5.876,13.74-.06,22.664-11.395Z" transform="translate(-1071.853 -1633.721)" fill="#ffd9ad" fill-rule="evenodd"/>
      <path id="Trazado_811008" data-name="Trazado 811008" d="M826.591,1803.194c-5.241-1.826-11.862-1.588-15.7.793s5.144,4.787,8.436,3.471a40.353,40.353,0,0,0,7.266-4.264Z" transform="translate(-741.78 -1699.248)" fill="#ffd9ad" fill-rule="evenodd"/>
      <path id="Trazado_811009" data-name="Trazado 811009" d="M584.935,1615.382c-6.09-2.025-9.019-4.8-17.5-1.717s-3.086,10.615,2.169,8.564,15.332-6.847,15.332-6.847Z" transform="translate(-515.622 -1525.513)" fill="#ffd9ad" fill-rule="evenodd"/>
      <path id="Trazado_811010" data-name="Trazado 811010" d="M255.313,1235.014c.029,8.37,2.817,25.354,11.477,25.792s14.206-6.228,6.543-9.219.172-7.527-7.136-12.029-10.884-4.543-10.884-4.543Z" transform="translate(-233.824 -1179.993)" fill="#ffd9ad" fill-rule="evenodd"/>
      <path id="Trazado_811011" data-name="Trazado 811011" d="M28.483,876.524C21.12,878.949,16.008,879.4,0,876.145v3.937c12.741,1.789,15.057,3.624,16.034,7.066,1.091,3.84,12.448-10.623,12.448-10.623Z" transform="translate(0 -851.329)" fill="#ffd9ad" fill-rule="evenodd"/>
    </g>
    <g id="Grupo_1070751" data-name="Grupo 1070751" transform="translate(94.164 515.031)">
      <path id="Trazado_811012" data-name="Trazado 811012" d="M1120.062,2956.087c-1.1.246-1.712,5.151-.908,9.013,1.086,5.219,6.2,6.167,8.141,3.2,2.824-4.314-2.864-8.436-5.7-10.465-1.53-1.094-.381-2-1.53-1.749Z" transform="translate(-1118.785 -2956.044)" fill="#ca9f7d" fill-rule="evenodd"/>
      <path id="Trazado_811013" data-name="Trazado 811013" d="M1124.515,2984.306c-.656,2.623-.109,7.541,1.53,9.18s4.7,1.2,5.572.109c3.743-4.68-6.581-11.9-7.1-9.29Z" transform="translate(-1123.785 -2981.422)" fill="#956851" fill-rule="evenodd"/>
      <path id="Trazado_811014" data-name="Trazado 811014" d="M1133.26,2995.769a4.99,4.99,0,0,0,1.042,1.809c1.639,1.638,4.7,1.2,5.573.109,2.712-3.39-1.962-8.112-4.941-9.466,2.432,2.281,7.041,7.277,3.593,9.453-2.25,1.423-4-.171-5.267-1.905Z" transform="translate(-1132.042 -2985.513)" fill="#583424" fill-rule="evenodd"/>
      <path id="Trazado_811015" data-name="Trazado 811015" d="M1139.765,2992.839a11.169,11.169,0,0,1,2.965,4.6,2.566,2.566,0,0,1-.941,2.657c6.521-2.27-2.488-9.763-3.983-9.668-.513.032,1.151,1.7,1.959,2.412Z" transform="translate(-1136.117 -2987.533)" fill="#bc9b94" fill-rule="evenodd"/>
      <path id="Trazado_811016" data-name="Trazado 811016" d="M1138.406,3044.656c.277,1.207.655,2.453,1.483,2.927.71.409-2.417-6.991-1.483-2.927Z" transform="translate(-1136.594 -3036.078)" fill="#bc9b94" fill-rule="evenodd"/>
    </g>
    <g id="Grupo_1070752" data-name="Grupo 1070752" transform="translate(11.023 405.063)">
      <path id="Trazado_811017" data-name="Trazado 811017" d="M1012.111,1650.26a4.392,4.392,0,0,0-1.36,5.873c2.017,4.213,10.249,5.286,13.14,3.586,1.517-.893-.089-2.23-1.071-1.963s-2.142-4.1-3.837-6.069-4.648-2.994-6.872-1.427Z" transform="translate(-1010.176 -1649.497)" fill="#ca9f7d" fill-rule="evenodd"/>
      <path id="Trazado_811018" data-name="Trazado 811018" d="M1019.332,1661.113c1.519,3.42,8.769,4.216,10.887,2.945.892-.535-.625-1.517-1.249-2.945-1.215-2.778-4.178-7.724-7.9-5.9-1.9.93-2.885,3.31-1.735,5.9Z" transform="translate(-1018.111 -1654.372)" fill="#956851" fill-rule="evenodd"/>
      <path id="Trazado_811019" data-name="Trazado 811019" d="M1029.015,1663.416c2.073,2.883,8.542,3.5,10.522,2.314.893-.535-.625-1.517-1.25-2.945-.912-2.086-2.809-5.392-5.274-6.14a8.364,8.364,0,0,1,4.459,5.741c-.283-.378-1.481-.756-1.071-.315s2.71,2.869,1.733,3.435c-.683.4-2.833.3-4.765-.063a7.363,7.363,0,0,1-4.355-2.028Z" transform="translate(-1027.429 -1656.043)" fill="#583424" fill-rule="evenodd"/>
      <path id="Trazado_811020" data-name="Trazado 811020" d="M1026.431,1660.507a3.4,3.4,0,0,0-2.521,3.089c0,1.26,2.521,1.009,3.467-.536s.505-3.056-.946-2.553Z" transform="translate(-1022.754 -1659.49)" fill="#bc9b94" fill-rule="evenodd"/>
    </g>
    <g id="Grupo_1070753" data-name="Grupo 1070753" transform="translate(123.633 479.704)">
      <path id="Trazado_811021" data-name="Trazado 811021" d="M1469.232,2536.525c-.915.6.363,2.233.934,2.649s1.61,4.31,5.142,5.817,6.8.052,7.53-2.493c.529-1.853-1.454-5.038-4.206-5.609s-6.284.1-7.375,0-1.122-.957-2.025-.364Z" transform="translate(-1468.911 -2536.318)" fill="#ca9f7d" fill-rule="evenodd"/>
      <path id="Trazado_811022" data-name="Trazado 811022" d="M1474.73,2542.08c.411.645,2.388,4.363,4.778,5.245s5.765,0,6.284-2.077a4.181,4.181,0,0,0-2.077-4.467,12.437,12.437,0,0,0-5.921-.882c-2.337.261-2.7.312-3.22-.051-1.24-.868-1.347.029-1.054.763.4,1.009.886.961,1.21,1.469Z" transform="translate(-1473.008 -2539.223)" fill="#583424" fill-rule="evenodd"/>
      <path id="Trazado_811023" data-name="Trazado 811023" d="M1474.732,2542.552c.411.645,2.389,4.362,4.778,5.245a5.638,5.638,0,0,0,1.8.336c-2.448-.347-6.387-3.481-5.694-6.257.1-.415-.571-.986-.571-.986a4.8,4.8,0,0,0,1.349.259,25.8,25.8,0,0,1,5.038-.052c2.543.492,5.169,2.687,3.324,5.453a6.945,6.945,0,0,1-1.475,1.34,3.363,3.363,0,0,0,2.514-2.17,4.181,4.181,0,0,0-2.078-4.467,12.482,12.482,0,0,0-5.92-.883c-2.337.261-2.7.312-3.22-.051A2.344,2.344,0,0,0,1474,2540a.15.15,0,0,0,.007.055c.26.675,1.627,1.589.78,1.713-.864.127-1.212-1.217-1.33-1.641a1.242,1.242,0,0,0,.067.951c.4,1.009.886.961,1.21,1.47Z" transform="translate(-1473.009 -2539.694)" fill="#956851" fill-rule="evenodd"/>
      <path id="Trazado_811024" data-name="Trazado 811024" d="M1513.554,2568.732c2.57.42,3.427-.572,3.739-1.091s-.68.389-2.083.078-5.469-3.235-4.731-3.25c1.177-.023,5.916,3.047,6.97,2.08.623-.571-.44-2.121-3.22-2.6-2.805-.489-4.5-.71-4.882-.023-.619,1.114,2,4.449,4.208,4.811Z" transform="translate(-1505.858 -2561.2)" fill="#bc9b94" fill-rule="evenodd"/>
      <path id="Trazado_811025" data-name="Trazado 811025" d="M1476.548,2543.633c.277-.213,1.238.791,1.174,1.046s-1.195-.064-1.174-1.046Z" transform="translate(-1475.906 -2542.99)" fill="#bc9b94" fill-rule="evenodd"/>
    </g>
    <g id="Grupo_1070754" data-name="Grupo 1070754" transform="translate(134.954 454.217)">
      <path id="Trazado_811026" data-name="Trazado 811026" d="M1614.569,2237.964c1.427,3.22.369,9.8-.506,11.364s-1.011.414-1.564-.138-6.3-1.933-8.005-6.12c-4.653-11.443,7.049-11.941,10.075-5.106Z" transform="translate(-1603.414 -2233.5)" fill="#ca9f7d" fill-rule="evenodd"/>
      <path id="Trazado_811027" data-name="Trazado 811027" d="M1618.251,2238.54c1.505,3.4.333,7.749-.828,11.088-.368,1.057-.6.138-1.38-.6s-2.576-.828-5.291-2.622-3.221-5.889-3.267-7.683a4.273,4.273,0,0,1,2.064-3.8c3.044-1.752,7.4.667,8.7,3.618Z" transform="translate(-1607.141 -2234.26)" fill="#583424" fill-rule="evenodd"/>
      <path id="Trazado_811028" data-name="Trazado 811028" d="M1623.112,2240.338c5.536.592,5.942,7.857,5.758,8.27,0,0-3.069-8.137-6.743-6.892-3.519,1.194,3.67,6.716,4.288,8.105a5.539,5.539,0,0,1,.506,2.024c0,.414-6.065-1.018-7.169-4.1-1.033-2.886-.613-7.833,3.359-7.406Z" transform="translate(-1617.937 -2239.739)" fill="#bc9b94" fill-rule="evenodd"/>
      <path id="Trazado_811029" data-name="Trazado 811029" d="M1704.252,2387.043c1.61.323,1.886,0,2.162-.643s-.046,1.61-.552,1.656-1.61-1.013-1.61-1.013Z" transform="translate(-1695.765 -2373.425)" fill="#ca9f7d" fill-rule="evenodd"/>
    </g>
    <g id="Grupo_1070755" data-name="Grupo 1070755" transform="translate(135.997 490.167)">
      <path id="Trazado_811030" data-name="Trazado 811030" d="M1616.837,2672.893c.759.272,1.259-.271,2.122-.17,2.133.245,4.9.485,7.671-2.018,4.653-4.195,3.9-9.243.933-9.969s-8.417,2.762-8.931,5.478c-.622,3.287-4.683,5.644-1.8,6.68Z" transform="translate(-1615.811 -2660.637)" fill="#ca9f7d" fill-rule="evenodd"/>
      <path id="Trazado_811031" data-name="Trazado 811031" d="M1624.852,2684.64c2.1-4.372,6.1-10.826,9.45-9.445s1.906,7.069-1.545,8.745-8.627,1.621-7.9.7Z" transform="translate(-1624.028 -2673.795)" fill="#956851" fill-rule="evenodd"/>
      <path id="Trazado_811032" data-name="Trazado 811032" d="M1634.211,2776.361c.8.628-.115,1.256-.685,1.084s.171-1.768.685-1.084Z" transform="translate(-1631.847 -2766.466)" fill="#bc9b94" fill-rule="evenodd"/>
    </g>
    <g id="Grupo_1070756" data-name="Grupo 1070756" transform="translate(112.245 514.527)">
      <path id="Trazado_811033" data-name="Trazado 811033" d="M1334.229,2955.707c1.6,2.3,4.034,4.5,9.246,3.9,6.224-.718,8.538-5.266,6.544-7.581s-8.459-2.632-10.454-.718-2.93,2.24-4.069,2.156c-.812-.061-1.3-.229-1.7.127-.323.288-.288,1.085.43,2.118Z" transform="translate(-1333.603 -2950.057)" fill="#ca9f7d" fill-rule="evenodd"/>
      <path id="Trazado_811034" data-name="Trazado 811034" d="M1337.532,2959.277a9.717,9.717,0,0,0,3.764,2.941c2.589,1.1,7.211.1,9.5-1.356,1.755-1.117,3.192-3.512,1.117-5.746-1.963-2.115-7.421-1.968-9.48.178a4.214,4.214,0,0,1-2.445,1.545,3.93,3.93,0,0,1-2.07.031c-1.5-.306-1.11,1.5-.382,2.407Z" transform="translate(-1336.61 -2953.306)" fill="#583424" fill-rule="evenodd"/>
      <path id="Trazado_811035" data-name="Trazado 811035" d="M1398.424,2967.254a4.766,4.766,0,0,1,2.791-2.313,7.825,7.825,0,0,1,5.522.96c.658.536-1.805,1.3-3.709,1.794s-4.972.568-4.6-.441Z" transform="translate(-1392.94 -2963.53)" fill="#bc9b94" fill-rule="evenodd"/>
      <path id="Trazado_811036" data-name="Trazado 811036" d="M1342.373,2998.563c.395-.563,1.862.734,1.354,1.072s-1.354.339-1.354-1.072Z" transform="translate(-1341.635 -2994.353)" fill="#bc9b94" fill-rule="evenodd"/>
      <path id="Trazado_811037" data-name="Trazado 811037" d="M1389.317,3011.121c4.275.082,8.549-2.057,9.618-2.221s-.822,2.466-4.192,3.042a7.808,7.808,0,0,1-5.425-.821Z" transform="translate(-1384.628 -3003.94)" fill="#bc9b94" fill-rule="evenodd"/>
    </g>
    <g id="Grupo_1070757" data-name="Grupo 1070757" transform="translate(206.959 453.368)">
      <path id="Trazado_811038" data-name="Trazado 811038" d="M2502.836,2330.106c2.588-11.648,4.384-37.419,1.688-55.231-1.7-11.245-8.159-18.3-11.4-18.664-16.033-1.8-15.624,5.911-21.957,7.178a29.087,29.087,0,0,1-12.246-.422s2.535-9.289,17.734-13.088,23.647,4.221,25.758,9.71,3.8,2.956,4.223-1.689,1.688-10.134,8.444-12.245,15.2,4.645,21.534,5.913a42.285,42.285,0,0,0,10.979.844s-2.955,10.556-15.622,8.445-15.2-5.911-19.847-.423-1.688,32.935-2.956,50.249-2.532,31.668-6.333,19.423Z" transform="translate(-2458.922 -2243.412)" fill="#71b84f" fill-rule="evenodd"/>
      <path id="Trazado_811039" data-name="Trazado 811039" d="M3173.531,2338.281c-.909,2.287-4.674,9.563-15.388,7.776-8.493-1.416-12.431-3.589-15.5-3.214a6.986,6.986,0,0,1,3.018-1.918,22.144,22.144,0,0,1,10.208.431c2.732.863,5.609.143,9.923-.863a60.363,60.363,0,0,0,7.743-2.213Z" transform="translate(-3085.093 -2328.614)" fill="#2a7806" fill-rule="evenodd"/>
      <path id="Trazado_811040" data-name="Trazado 811040" d="M2493.186,2341.251l-.061-.009c-16.033-1.8-15.624,5.911-21.957,7.178a29.08,29.08,0,0,1-12.246-.422s.028-.1.094-.282a7.265,7.265,0,0,1,3.685-2.033,70.093,70.093,0,0,0,12.184-4.793c2.063-1.264,10.584-3.928,14.979-2.264a7.084,7.084,0,0,1,3.323,2.625Z" transform="translate(-2458.922 -2328.442)" fill="#2a7806" fill-rule="evenodd"/>
      <path id="Trazado_811041" data-name="Trazado 811041" d="M2980.673,2735.243c2.214-9.967,3.847-30.267,2.585-47.079a22.028,22.028,0,0,0,3.963-.545c.034,9.386.389,19.945-.216,28.2-1.267,17.311-2.533,31.668-6.333,19.423Z" transform="translate(-2936.759 -2648.548)" fill="#ac9c7a" fill-rule="evenodd"/>
      <path id="Trazado_811042" data-name="Trazado 811042" d="M2997.3,2496.327a142.535,142.535,0,0,0-1.337-20.669q-.186-1.214-.44-2.361c1.872,1.535,3.439,1.31,4.115-.817.724-2.272,1.408-5.73,2.451-7.995-1.484,5.627-1.317,16.1-1.193,26.83.031,2.526.255,12.507-1.66,12.99-2.228.563-1.934-6.39-1.936-7.979Z" transform="translate(-2950.36 -2444.196)" fill="#84e358" fill-rule="evenodd"/>
      <path id="Trazado_811043" data-name="Trazado 811043" d="M2971.052,2380.844q.22.452.387.886c2.112,5.49,3.8,2.956,4.222-1.689.042-.468.094-.945.159-1.425.352,6.3.648,16.9-1.141,12.8-1.624-3.717-2.24-6.614-3.628-10.574Z" transform="translate(-2927.948 -2365.554)" fill="#84e358" fill-rule="evenodd"/>
      <path id="Trazado_811044" data-name="Trazado 811044" d="M3128.483,2354.146a5.243,5.243,0,0,0-2.075.408c2.007-2.548,5.294-2.971,8.813-3.277,4.653-.4,7.891,2.024,13.354.809a76.152,76.152,0,0,1,7.486-1.416s-6.069,3.035-11.129,2.833c-4.094-.164-10.972-2.845-16.45.643Z" transform="translate(-3070.227 -2339.959)" fill="#84e358" fill-rule="evenodd"/>
      <path id="Trazado_811045" data-name="Trazado 811045" d="M2548.06,2335.832c-.158,0-.318.006-.482.023l-.1.011c-4.559-3.519-11.365-3.585-17.286-.1-8.137,4.787-13.162,4.07-11.487,4.07s11.965-6.462,18.667-7.42c4.655-.664,7.923.288,10.689,3.419Z" transform="translate(-2513.377 -2323.056)" fill="#84e358" fill-rule="evenodd"/>
      <path id="Trazado_811046" data-name="Trazado 811046" d="M2968.793,2241.634c-2.508-5.014-2.7-7.521-2.058-11.058s1.606,4.243,2.25,7.136.128-9.323-1.544-12.408,1.8-2.7,3.151,3.472-.644,16.521-1.8,12.857Z" transform="translate(-2923.708 -2223.416)" fill="#84e358" fill-rule="evenodd"/>
    </g>
    <g id="Grupo_1070758" data-name="Grupo 1070758" transform="translate(0 514.61)">
      <path id="Trazado_811047" data-name="Trazado 811047" d="M125.279,2991.331H0v-36.72c1.1-1.313,1.916-2.607,3.328-2.062a9.613,9.613,0,0,0,6.939-.287c1.983-.859,2.478.574,4.461.287s3.965-2.293,7.435-1.146,8.178,1.433,11.152.285,7.187-.285,7.187-.285l6.2,2.007s.5-1.722,3.965-1.147a16.4,16.4,0,0,1,5.7,2.007,12.028,12.028,0,0,1,7.683,0c3.965,1.433,2.082,3.826,2.082,3.826s4.548-2.694,6.779-.973c1.849,1.426,6.506,11.194,7.991,10.907s1.487-1.72,3.965-1.146.991,1.146,2.478,3.727,1.735-2.581,4.957-2.007,2.478,5.735,2.478,5.735,1.735-1.148,2.231,1.146,7.75-.269,9.416,3.3c2.022,4.334,8,5.2,11.126,6.707,3.359,1.625,4.2,4.211,7.728,5.838Z" transform="translate(0 -2951.051)" fill="#2b271a"/>
      <path id="Trazado_811048" data-name="Trazado 811048" d="M31.383,3003.937c-3.946,3.8-.164,2.663,1.809,2.473s3.617-3.044,5.1-.38,2.631.76,2.137-.38,2.631-2.284.493-2.473-3.617,0-4.439-1.142-7.235-1.331-5.1,1.9Z" transform="translate(-27.16 -2997.053)" fill="#3c3c3e"/>
      <path id="Trazado_811049" data-name="Trazado 811049" d="M11.6,3245.268c-2.631,2.091-1.151,7.229,1.315,4.755s-.987-.951,0-2.853-1.315-1.9-1.315-1.9Z" transform="translate(-9.355 -3220.505)" fill="#3c3c3e"/>
      <path id="Trazado_811050" data-name="Trazado 811050" d="M0,3262.883c.26-.419.277-.752,0-.808v.808Z" transform="translate(0 -3235.898)" fill="#3c3c3e"/>
      <path id="Trazado_811051" data-name="Trazado 811051" d="M8.324,3361.056H5.609c.887-.265.491-2.043.094-2.962-.493-1.142-3.288,0-4.768,1.9a1.965,1.965,0,0,1-.935.728v-5.941a10.119,10.119,0,0,1,.277,2.169c.165,3.424,1.973.19,4.275-1.521s3.453,0,5.426,3.233c1.949,3.194-1.876.264-1.654,2.392Zm-3.249,0H3.116a1.629,1.629,0,0,1,1.6-.109,2.493,2.493,0,0,0,.358.109Z" transform="translate(0 -3320.777)" fill="#3c3c3e"/>
      <path id="Trazado_811052" data-name="Trazado 811052" d="M87.051,3236.227c-1.973,2.663-.329,3.424.822,2.093s-.822-2.093-.822-2.093Z" transform="translate(-78.882 -3212.224)" fill="#3c3c3e"/>
      <path id="Trazado_811053" data-name="Trazado 811053" d="M129.965,3306.282c-1.151,2.473-.493,2.093,1.48,3.042s.493,4.756,2.466,2.472a13.785,13.785,0,0,0,2.631-4.373,4.651,4.651,0,0,0-3.124-.572,6.254,6.254,0,0,1-3.453-.569Z" transform="translate(-118.508 -3276.383)" fill="#3c3c3e"/>
      <path id="Trazado_811054" data-name="Trazado 811054" d="M124.431,3194.559c-.986,1.332,2.466,2.852,2.466,1.141s-2.466-1.141-2.466-1.141Z" transform="translate(-113.796 -3173.981)" fill="#3c3c3e"/>
      <path id="Trazado_811055" data-name="Trazado 811055" d="M210.881,3175.213c-2.137,1.331-.987,2.855,0,1.713s0-1.713,0-1.713Z" transform="translate(-192.025 -3156.346)" fill="#3c3c3e"/>
      <path id="Trazado_811056" data-name="Trazado 811056" d="M139.412,3132.277c-2.137,1.14.822,1.522.822,1.522l-.822-1.522Z" transform="translate(-126.968 -3117.024)" fill="#3c3c3e"/>
      <path id="Trazado_811057" data-name="Trazado 811057" d="M286.8,3290.465c-1.151,2.854.987,3.8,1.48,2.283s-1.48-2.283-1.48-2.283Z" transform="translate(-262.353 -3261.897)" fill="#3c3c3e"/>
      <path id="Trazado_811058" data-name="Trazado 811058" d="M148.191,3242.369c-4.275,2.283-2.3,1.331.493,2.283s3.946-2.852-.493-2.283Z" transform="translate(-133.446 -3217.796)" fill="#3c3c3e"/>
      <path id="Trazado_811059" data-name="Trazado 811059" d="M271.392,3148.1c-3.124,1.9-2.631.382.493,1.523s-.493-1.523-.493-1.523Z" transform="translate(-246.617 -3131.511)" fill="#3c3c3e"/>
      <path id="Trazado_811060" data-name="Trazado 811060" d="M204.244,3014.129c-2.3,1.711-1.644.57.329,1.9s4.275-2.472-.329-1.9Z" transform="translate(-185.717 -3008.766)" fill="#3c3c3e"/>
      <path id="Trazado_811061" data-name="Trazado 811061" d="M269.552,3023.809c-3.946.762-5.919,2.093-3.124,1.713s2.137.189,4.275,1.521-1.151-3.233-1.151-3.233Z" transform="translate(-242.804 -3017.685)" fill="#3c3c3e"/>
      <path id="Trazado_811062" data-name="Trazado 811062" d="M602.731,3367.3c-3.124,3.995-1.315,2.284,1.48,3.424s3.946.951,4.6-1.332-1.809-1.9-2.96-.951-3.124-1.142-3.124-1.142Z" transform="translate(-550.498 -3332.263)" fill="#3c3c3e"/>
      <path id="Trazado_811063" data-name="Trazado 811063" d="M709.8,3191.032c-3.288,2.854,4.275,2.284,1.151,4.185s-4.768,1.713-2.466,3.424a10.235,10.235,0,0,0,5.425,1.713s2.466-3.615,3.782-1.333-.657-4.374-3.288-3.042,3.617-3.614.329-3.614a8.19,8.19,0,0,1-4.933-1.333Z" transform="translate(-647.867 -3170.834)" fill="#3c3c3e"/>
      <path id="Trazado_811064" data-name="Trazado 811064" d="M781.574,3091.6c-2.466,1.9-.493.571.658,3.8s-2.466,1.9-.329,3.615-.658-.951,2.8-.571,5.1.382,3.946-1.521-2.3.189-2.8-2.473-4.275-2.853-4.275-2.853Z" transform="translate(-714.708 -3079.771)" fill="#3c3c3e"/>
      <path id="Trazado_811065" data-name="Trazado 811065" d="M864.575,3249.557c-1.151,1.331-.165,2.091-1.809,3.613s2.8,5.136,2.959,3.614,0-3.614,2.467-4.184.329-5.327-.494-3.8-3.124.762-3.124.762Z" transform="translate(-789.816 -3223.462)" fill="#3c3c3e"/>
      <path id="Trazado_811066" data-name="Trazado 811066" d="M1042.806,3416h-2.014c-.4-.264-.382-.687.754-1.251,0,0,1.188.8,1.259,1.251Z" transform="translate(-952.978 -3375.724)" fill="#3c3c3e"/>
      <path id="Trazado_811067" data-name="Trazado 811067" d="M991.759,3326.327c0,1.332,2.795,3.8,3.124,1.713s-3.124-1.713-3.124-1.713Z" transform="translate(-908.286 -3294.717)" fill="#3c3c3e"/>
      <path id="Trazado_811068" data-name="Trazado 811068" d="M587.555,3206.853c-2.63,2.092-.987,3.614,0,2.474a2.05,2.05,0,0,0,0-2.474Z" transform="translate(-536.802 -3185.322)" fill="#3c3c3e"/>
      <path id="Trazado_811069" data-name="Trazado 811069" d="M470.8,3277.338h-5.668a2.6,2.6,0,0,1-.364-2.392c.493-1.522.986,1.521,2.959,1.711s3.288-1.9,1.809-3.424,0-1.331,3.124-3.043-2.959-2.853-2.138-5.325c.329-3.615,3.288,0,5.261,2.663s3.782.38,3.617,2.471-3.288,1.713-5.755,3.045,0,1.712-.822,2.851a4.958,4.958,0,0,1-2.025,1.442Z" transform="translate(-425.526 -3237.059)" fill="#3c3c3e"/>
      <path id="Trazado_811070" data-name="Trazado 811070" d="M610.547,3059.964c-1.973,1.331.493,4.756,1.48,2.855s-1.48-2.855-1.48-2.855Z" transform="translate(-558.478 -3050.796)" fill="#3c3c3e"/>
      <path id="Trazado_811071" data-name="Trazado 811071" d="M444.154,3182.251c-2.131,2.016.581,4.929,1.743,4.032s-1.55-2.241-1.55-2.241,3.293-2.24-.194-1.791Z" transform="translate(-406.045 -3162.737)" fill="#909694" fill-rule="evenodd"/>
      <path id="Trazado_811072" data-name="Trazado 811072" d="M795.675,3331.045c1.162-1.12,3.874.9,2.712,1.792s-2.712-1.792-2.712-1.792Z" transform="translate(-728.706 -3298.76)" fill="#909694" fill-rule="evenodd"/>
      <path id="Trazado_811073" data-name="Trazado 811073" d="M219.684,3084.939c-1.743,1.12,1.743,5.153,2.324,2.017s-2.324-2.017-2.324-2.017Z" transform="translate(-200.752 -3073.493)" fill="#909694" fill-rule="evenodd"/>
      <path id="Trazado_811074" data-name="Trazado 811074" d="M349,3313.341s4.261.448,2.518,2.017-6.392-.9-2.518-2.017Z" transform="translate(-318.252 -3282.848)" fill="#909694" fill-rule="evenodd"/>
      <path id="Trazado_811075" data-name="Trazado 811075" d="M521.818,3051.127c1.549-1.569,2.906.224,2.131,1.569s-2.131-1.569-2.131-1.569Z" transform="translate(-477.899 -3042.145)" fill="#909694" fill-rule="evenodd"/>
      <path id="Trazado_811076" data-name="Trazado 811076" d="M1277.6,2991.331H1095.353l8.9-6.5,6.784-1.141c-1.239-7.167,3.959-7.922,6.438-8.494s1.239-4.3,2.974-5.449,4.709-.861,4.709-.861-.743-4.585,1.983-5.732a15.307,15.307,0,0,1,6.2-.86,4.9,4.9,0,0,1,2.23-3.441,12.532,12.532,0,0,1,5.2-1.146s1.239-3.153,3.469-3.153,2.974,3.153,5.7,2.006,3.47-4.874,5.7-4.013a9.613,9.613,0,0,0,6.939-.287c1.983-.859,2.479.574,4.461.287s3.966-2.293,7.434-1.146,8.179,1.433,11.153.285,7.187-.285,7.187-.285l6.2,2.007s.5-1.722,3.965-1.147a16.4,16.4,0,0,1,5.7,2.007,12.028,12.028,0,0,1,7.682,0c3.965,1.433,2.083,3.826,2.083,3.826s4.548-2.694,6.779-.973c1.849,1.426,6.505,11.194,7.991,10.907s1.487-1.72,3.965-1.146.992,1.146,2.479,3.727,1.735-2.581,4.957-2.007,2.478,5.735,2.478,5.735,1.735-1.148,2.231,1.146,7.75-.269,9.416,3.3c2.022,4.334,8,5.2,11.126,6.707,3.359,1.625,4.2,4.211,7.729,5.838Z" transform="translate(-1003.161 -2951.051)" fill="#2b271a"/>
      <path id="Trazado_811077" data-name="Trazado 811077" d="M1377.032,3236.358h-7.612c-.42-2.678.909-3.532.909-3.532s-3.617-2.283-1.974-4,3.289-.76,4.275-2.093.822-5.134-.657-3.422-4.6,1.142-3.454-.191a5.54,5.54,0,0,1,3.289-1.521s-.822-3.8,1.315-2.854c2.138.38.822,2.473.822,2.473a2.454,2.454,0,0,1,2.3,1.711c.493,1.711-1.316,1.9.164,2.853s1.644-.571,3.617.38,3.781,2.471,1.48,2.282-2.631-.19-3.617.762-3.453-2.854-3.782.189-1.151,5.325.328,4.945,1.48-3.8,3.782-3.233,4.111,3.424,3.947.762,1.479-3.424,3.288-1.713,2.96.571.658-2.092-.165-3.8,1.316-2.282,2.794-.951,2.794-.951,2.137-1.142,2.96.38.822,2.853-1.644,2.664-3.453-.762-2.63.949,1.48,4-.493,4-3.618-2.093-3.618.189-1.644,4.375-3.946,2.473-3.124-.951-3.782.761c-.013.035-.025.071-.037.109Z" transform="translate(-1252.793 -3196.079)" fill="#3c3c3e"/>
      <path id="Trazado_811078" data-name="Trazado 811078" d="M1534.817,3119.575c-3.782-.76-2.8,2.092-2.8,2.092s-2.959-1.9-2.795.951,3.288,2.473,3.288,2.473-2.466,3.233.329,3.233-.493-1.9,3.124-1.9,6.413-.949,4.275-2.853-2.3.191-4.111,0-4.11-.38-1.314-1.711,0-2.282,0-2.282Z" transform="translate(-1400.51 -3105.273)" fill="#3c3c3e"/>
      <path id="Trazado_811079" data-name="Trazado 811079" d="M1803.531,3003.937c-3.946,3.8-.165,2.663,1.809,2.473s3.617-3.044,5.1-.38,2.631.76,2.137-.38,2.632-2.284.494-2.473-3.617,0-4.439-1.142-7.235-1.331-5.1,1.9Z" transform="translate(-1650.153 -2997.053)" fill="#3c3c3e"/>
      <path id="Trazado_811080" data-name="Trazado 811080" d="M1783.752,3245.268c-2.63,2.091-1.151,7.229,1.316,4.755s-.987-.951,0-2.853-1.316-1.9-1.316-1.9Z" transform="translate(-1632.348 -3220.505)" fill="#3c3c3e"/>
      <path id="Trazado_811081" data-name="Trazado 811081" d="M1699.494,3251.431c-.329,3.233-1.151,2.662,2.137,2.473s4.933-3.424,3.124-2.662a8.16,8.16,0,0,1-2.795.759s-.493-3.8-2.467-.57Z" transform="translate(-1556.145 -3224.956)" fill="#3c3c3e"/>
      <path id="Trazado_811082" data-name="Trazado 811082" d="M1708.442,3344.774h-2.716c.888-.265.492-2.045.095-2.964-.494-1.141-3.289,0-4.769,1.9s-2.959,0-3.453-2.284-.165-.761-2.467-.379-2.3-1.9.822-3.806c3.617-.76,4.275,0,4.439,3.424s1.973.189,4.275-1.522,3.453,0,5.426,3.235c1.949,3.193-1.876.264-1.653,2.392Zm-3.25,0h-1.958a1.629,1.629,0,0,1,1.6-.109,2.613,2.613,0,0,0,.358.109Z" transform="translate(-1550.963 -3304.495)" fill="#3c3c3e"/>
      <path id="Trazado_811083" data-name="Trazado 811083" d="M1859.2,3236.227c-1.973,2.663-.329,3.424.822,2.093s-.822-2.093-.822-2.093Z" transform="translate(-1701.874 -3212.224)" fill="#3c3c3e"/>
      <path id="Trazado_811084" data-name="Trazado 811084" d="M1902.113,3306.282c-1.151,2.473-.494,2.093,1.48,3.042s.493,4.756,2.466,2.472a13.788,13.788,0,0,0,2.631-4.373,4.653,4.653,0,0,0-3.124-.572,6.253,6.253,0,0,1-3.453-.569Z" transform="translate(-1741.5 -3276.383)" fill="#3c3c3e"/>
      <path id="Trazado_811085" data-name="Trazado 811085" d="M1896.579,3194.559c-.987,1.332,2.467,2.852,2.467,1.141s-2.467-1.141-2.467-1.141Z" transform="translate(-1736.789 -3173.981)" fill="#3c3c3e"/>
      <path id="Trazado_811086" data-name="Trazado 811086" d="M1983.028,3175.213c-2.138,1.331-.987,2.855,0,1.713s0-1.713,0-1.713Z" transform="translate(-1815.016 -3156.346)" fill="#3c3c3e"/>
      <path id="Trazado_811087" data-name="Trazado 811087" d="M1911.559,3132.277c-2.137,1.14.822,1.522.822,1.522l-.822-1.522Z" transform="translate(-1749.959 -3117.024)" fill="#3c3c3e"/>
      <path id="Trazado_811088" data-name="Trazado 811088" d="M2058.948,3290.465c-1.151,2.854.987,3.8,1.48,2.283s-1.48-2.283-1.48-2.283Z" transform="translate(-1885.345 -3261.897)" fill="#3c3c3e"/>
      <path id="Trazado_811089" data-name="Trazado 811089" d="M1920.338,3242.369c-4.275,2.283-2.3,1.331.493,2.283s3.946-2.852-.493-2.283Z" transform="translate(-1756.437 -3217.796)" fill="#3c3c3e"/>
      <path id="Trazado_811090" data-name="Trazado 811090" d="M2043.54,3148.1c-3.123,1.9-2.63.382.493,1.523s-.493-1.523-.493-1.523Z" transform="translate(-1869.61 -3131.511)" fill="#3c3c3e"/>
      <path id="Trazado_811091" data-name="Trazado 811091" d="M1976.393,3014.129c-2.3,1.711-1.644.57.329,1.9s4.274-2.472-.329-1.9Z" transform="translate(-1808.71 -3008.766)" fill="#3c3c3e"/>
      <path id="Trazado_811092" data-name="Trazado 811092" d="M2041.7,3023.809c-3.947.762-5.92,2.093-3.125,1.713s2.138.189,4.275,1.521-1.151-3.233-1.151-3.233Z" transform="translate(-1865.796 -3017.685)" fill="#3c3c3e"/>
      <path id="Trazado_811093" data-name="Trazado 811093" d="M2374.878,3367.3c-3.123,3.995-1.315,2.284,1.48,3.424s3.947.951,4.6-1.332-1.809-1.9-2.959-.951-3.125-1.142-3.125-1.142Z" transform="translate(-2173.49 -3332.263)" fill="#3c3c3e"/>
      <path id="Trazado_811094" data-name="Trazado 811094" d="M2481.948,3191.032c-3.289,2.854,4.275,2.284,1.151,4.185s-4.769,1.713-2.466,3.424a10.233,10.233,0,0,0,5.425,1.713s2.466-3.615,3.781-1.333-.657-4.374-3.287-3.042,3.616-3.614.329-3.614a8.191,8.191,0,0,1-4.933-1.333Z" transform="translate(-2270.859 -3170.834)" fill="#3c3c3e"/>
      <path id="Trazado_811095" data-name="Trazado 811095" d="M2553.723,3091.6c-2.466,1.9-.492.571.659,3.8s-2.466,1.9-.329,3.615-.659-.951,2.795-.571,5.1.382,3.945-1.521-2.3.189-2.793-2.473-4.276-2.853-4.276-2.853Z" transform="translate(-2337.701 -3079.771)" fill="#3c3c3e"/>
      <path id="Trazado_811096" data-name="Trazado 811096" d="M2636.72,3249.557c-1.151,1.331-.165,2.091-1.807,3.613s2.795,5.136,2.958,3.614,0-3.614,2.467-4.184.329-5.327-.494-3.8-3.124.762-3.124.762Z" transform="translate(-2412.808 -3223.462)" fill="#3c3c3e"/>
      <path id="Trazado_811097" data-name="Trazado 811097" d="M2814.955,3416h-2.013c-.4-.264-.383-.687.754-1.251,0,0,1.188.8,1.258,1.251Z" transform="translate(-2575.972 -3375.724)" fill="#3c3c3e"/>
      <path id="Trazado_811098" data-name="Trazado 811098" d="M2763.9,3326.327c0,1.332,2.8,3.8,3.124,1.713s-3.124-1.713-3.124-1.713Z" transform="translate(-2531.276 -3294.717)" fill="#3c3c3e"/>
      <path id="Trazado_811099" data-name="Trazado 811099" d="M2359.7,3206.853c-2.631,2.092-.987,3.614,0,2.474a2.05,2.05,0,0,0,0-2.474Z" transform="translate(-2159.793 -3185.322)" fill="#3c3c3e"/>
      <path id="Trazado_811100" data-name="Trazado 811100" d="M2242.951,3277.338h-5.667a2.607,2.607,0,0,1-.366-2.392c.495-1.522.988,1.521,2.961,1.711s3.288-1.9,1.807-3.424,0-1.331,3.125-3.043-2.961-2.853-2.137-5.325c.328-3.615,3.287,0,5.26,2.663s3.782.38,3.618,2.471-3.289,1.713-5.755,3.045,0,1.712-.822,2.851a4.947,4.947,0,0,1-2.024,1.442Z" transform="translate(-2048.52 -3237.059)" fill="#3c3c3e"/>
      <path id="Trazado_811101" data-name="Trazado 811101" d="M2382.7,3059.964c-1.974,1.331.493,4.756,1.48,2.855s-1.48-2.855-1.48-2.855Z" transform="translate(-2181.471 -3050.796)" fill="#3c3c3e"/>
      <path id="Trazado_811102" data-name="Trazado 811102" d="M1708.022,3111.017c-3.487,2.464,1.743,4.033,2.518,2.464s-2.518-2.464-2.518-2.464Z" transform="translate(-1563.177 -3097.553)" fill="#909694" fill-rule="evenodd"/>
      <path id="Trazado_811103" data-name="Trazado 811103" d="M2216.3,3182.251c-2.131,2.016.581,4.929,1.743,4.032s-1.55-2.241-1.55-2.241,3.293-2.24-.194-1.791Z" transform="translate(-2029.035 -3162.737)" fill="#909694" fill-rule="evenodd"/>
      <path id="Trazado_811104" data-name="Trazado 811104" d="M2567.824,3331.045c1.162-1.12,3.873.9,2.71,1.792s-2.71-1.792-2.71-1.792Z" transform="translate(-2351.699 -3298.76)" fill="#909694" fill-rule="evenodd"/>
      <path id="Trazado_811105" data-name="Trazado 811105" d="M1991.832,3084.939c-1.742,1.12,1.743,5.153,2.325,2.017s-2.325-2.017-2.325-2.017Z" transform="translate(-1823.744 -3073.493)" fill="#909694" fill-rule="evenodd"/>
      <path id="Trazado_811106" data-name="Trazado 811106" d="M2121.148,3313.341s4.261.448,2.519,2.017-6.393-.9-2.519-2.017Z" transform="translate(-1941.244 -3282.848)" fill="#909694" fill-rule="evenodd"/>
      <path id="Trazado_811107" data-name="Trazado 811107" d="M2293.964,3051.127c1.55-1.569,2.906.224,2.132,1.569s-2.132-1.569-2.132-1.569Z" transform="translate(-2100.889 -3042.145)" fill="#909694" fill-rule="evenodd"/>
      <path id="Trazado_811108" data-name="Trazado 811108" d="M3049.743,2991.331H2867.5l8.9-6.5,6.784-1.141c-1.238-7.167,3.96-7.922,6.438-8.494s1.239-4.3,2.974-5.449,4.709-.861,4.709-.861-.743-4.585,1.982-5.732a15.31,15.31,0,0,1,6.2-.86,4.9,4.9,0,0,1,2.23-3.441,12.537,12.537,0,0,1,5.206-1.146s1.24-3.153,3.469-3.153,2.974,3.153,5.7,2.006,3.469-4.874,5.7-4.013a9.614,9.614,0,0,0,6.94-.287c1.983-.859,2.479.574,4.46.287s3.966-2.293,7.437-1.146,8.178,1.433,11.151.285,7.188-.285,7.188-.285l6.2,2.007s.495-1.722,3.964-1.147a16.4,16.4,0,0,1,5.7,2.007,12.024,12.024,0,0,1,7.681,0c3.968,1.433,2.083,3.826,2.083,3.826s4.549-2.694,6.78-.973c1.848,1.426,6.5,11.194,7.99,10.907s1.489-1.72,3.966-1.146.992,1.146,2.478,3.727,1.734-2.581,4.958-2.007,2.479,5.735,2.479,5.735,1.734-1.148,2.23,1.146,7.75-.269,9.414,3.3c2.023,4.334,8,5.2,11.128,6.707,3.359,1.625,4.2,4.211,7.728,5.838Z" transform="translate(-2626.153 -2951.051)" fill="#2b271a"/>
      <path id="Trazado_811109" data-name="Trazado 811109" d="M3149.177,3236.358h-7.611c-.421-2.678.909-3.532.909-3.532s-3.618-2.283-1.974-4,3.289-.76,4.275-2.093.821-5.134-.657-3.422-4.605,1.142-3.455-.191a5.54,5.54,0,0,1,3.289-1.521s-.821-3.8,1.315-2.854c2.138.38.821,2.473.821,2.473a2.453,2.453,0,0,1,2.3,1.711c.494,1.711-1.315,1.9.165,2.853s1.644-.571,3.616.38,3.782,2.471,1.481,2.282-2.63-.19-3.618.762-3.452-2.854-3.781.189-1.15,5.325.329,4.945,1.479-3.8,3.781-3.233,4.11,3.424,3.947.762,1.479-3.424,3.288-1.713,2.959.571.657-2.092-.163-3.8,1.315-2.282,2.795-.951,2.795-.951,2.14-1.142,2.961.38.822,2.853-1.645,2.664-3.453-.762-2.63.949,1.479,4-.494,4-3.618-2.093-3.618.189-1.643,4.375-3.946,2.473-3.123-.951-3.781.761a1.14,1.14,0,0,0-.038.109Z" transform="translate(-2875.784 -3196.079)" fill="#3c3c3e"/>
      <path id="Trazado_811110" data-name="Trazado 811110" d="M3306.965,3119.575c-3.782-.76-2.8,2.092-2.8,2.092s-2.958-1.9-2.795.951,3.289,2.473,3.289,2.473-2.466,3.233.329,3.233-.494-1.9,3.125-1.9,6.412-.949,4.275-2.853-2.3.191-4.11,0-4.112-.38-1.315-1.711,0-2.282,0-2.282Z" transform="translate(-3023.503 -3105.273)" fill="#3c3c3e"/>
      <path id="Trazado_811111" data-name="Trazado 811111" d="M3575.679,3003.937c-3.945,3.8-.165,2.663,1.809,2.473s3.618-3.044,5.1-.38,2.632.76,2.139-.38,2.63-2.284.494-2.473-3.618,0-4.439-1.142-7.236-1.331-5.1,1.9Z" transform="translate(-3273.146 -2997.053)" fill="#3c3c3e"/>
      <path id="Trazado_811112" data-name="Trazado 811112" d="M3555.9,3245.268c-2.631,2.091-1.152,7.229,1.314,4.755s-.986-.951,0-2.853-1.314-1.9-1.314-1.9Z" transform="translate(-3255.34 -3220.505)" fill="#3c3c3e"/>
      <path id="Trazado_811113" data-name="Trazado 811113" d="M3471.642,3251.431c-.33,3.233-1.151,2.662,2.137,2.473s4.933-3.424,3.125-2.662a8.171,8.171,0,0,1-2.8.759s-.492-3.8-2.465-.57Z" transform="translate(-3179.137 -3224.956)" fill="#3c3c3e"/>
      <path id="Trazado_811114" data-name="Trazado 811114" d="M3480.587,3344.774h-2.715c.887-.265.491-2.045.093-2.964-.493-1.141-3.288,0-4.769,1.9s-2.958,0-3.452-2.284-.163-.761-2.465-.379-2.3-1.9.821-3.806c3.618-.76,4.275,0,4.439,3.424s1.974.189,4.275-1.522,3.454,0,5.427,3.235c1.949,3.193-1.877.264-1.654,2.392Zm-3.25,0h-1.959a1.63,1.63,0,0,1,1.6-.109,2.615,2.615,0,0,0,.358.109Z" transform="translate(-3173.952 -3304.495)" fill="#3c3c3e"/>
      <path id="Trazado_811115" data-name="Trazado 811115" d="M3631.347,3236.227c-1.974,2.663-.329,3.424.822,2.093s-.822-2.093-.822-2.093Z" transform="translate(-3324.866 -3212.224)" fill="#3c3c3e"/>
      <path id="Trazado_811116" data-name="Trazado 811116" d="M3674.26,3306.282c-1.151,2.473-.492,2.093,1.481,3.042s.492,4.756,2.465,2.472a13.768,13.768,0,0,0,2.631-4.373,4.651,4.651,0,0,0-3.125-.572,6.25,6.25,0,0,1-3.453-.569Z" transform="translate(-3364.492 -3276.383)" fill="#3c3c3e"/>
      <path id="Trazado_811117" data-name="Trazado 811117" d="M3668.727,3194.559c-.986,1.332,2.466,2.852,2.466,1.141s-2.466-1.141-2.466-1.141Z" transform="translate(-3359.781 -3173.981)" fill="#3c3c3e"/>
      <path id="Trazado_811118" data-name="Trazado 811118" d="M3755.177,3175.213c-2.138,1.331-.986,2.855,0,1.713s0-1.713,0-1.713Z" transform="translate(-3438.009 -3156.346)" fill="#3c3c3e"/>
      <path id="Trazado_811119" data-name="Trazado 811119" d="M3683.708,3132.277c-2.139,1.14.821,1.522.821,1.522l-.821-1.522Z" transform="translate(-3372.952 -3117.024)" fill="#3c3c3e"/>
      <path id="Trazado_811120" data-name="Trazado 811120" d="M3831.095,3290.465c-1.15,2.854.988,3.8,1.481,2.283s-1.481-2.283-1.481-2.283Z" transform="translate(-3508.337 -3261.897)" fill="#3c3c3e"/>
      <path id="Trazado_811121" data-name="Trazado 811121" d="M3692.486,3242.369c-4.275,2.283-2.3,1.331.494,2.283s3.945-2.852-.494-2.283Z" transform="translate(-3379.429 -3217.796)" fill="#3c3c3e"/>
      <path id="Trazado_811122" data-name="Trazado 811122" d="M3815.687,3148.1c-3.125,1.9-2.631.382.494,1.523s-.494-1.523-.494-1.523Z" transform="translate(-3492.601 -3131.511)" fill="#3c3c3e"/>
      <path id="Trazado_811123" data-name="Trazado 811123" d="M3748.54,3014.129c-2.3,1.711-1.646.57.327,1.9s4.275-2.472-.327-1.9Z" transform="translate(-3431.7 -3008.766)" fill="#3c3c3e"/>
      <path id="Trazado_811124" data-name="Trazado 811124" d="M3813.849,3023.809c-3.947.762-5.919,2.093-3.125,1.713s2.137.189,4.275,1.521-1.151-3.233-1.151-3.233Z" transform="translate(-3488.789 -3017.685)" fill="#3c3c3e"/>
      <path id="Trazado_811125" data-name="Trazado 811125" d="M4147.025,3367.3c-3.124,3.995-1.316,2.284,1.48,3.424s3.947.951,4.6-1.332-1.81-1.9-2.961-.951-3.125-1.142-3.125-1.142Z" transform="translate(-3796.481 -3332.263)" fill="#3c3c3e"/>
      <path id="Trazado_811126" data-name="Trazado 811126" d="M4254.1,3191.032c-3.289,2.854,4.273,2.284,1.149,4.185s-4.766,1.713-2.465,3.424a10.239,10.239,0,0,0,5.427,1.713s2.465-3.615,3.782-1.333-.658-4.374-3.288-3.042,3.616-3.614.327-3.614a8.181,8.181,0,0,1-4.931-1.333Z" transform="translate(-3893.852 -3170.834)" fill="#3c3c3e"/>
      <path id="Trazado_811127" data-name="Trazado 811127" d="M4325.871,3091.6c-2.467,1.9-.494.571.657,3.8s-2.466,1.9-.33,3.615-.655-.951,2.8-.571,5.1.382,3.947-1.521-2.3.189-2.8-2.473-4.274-2.853-4.274-2.853Z" transform="translate(-3960.694 -3079.771)" fill="#3c3c3e"/>
      <path id="Trazado_811128" data-name="Trazado 811128" d="M4408.872,3249.557c-1.153,1.331-.165,2.091-1.811,3.613s2.8,5.136,2.959,3.614,0-3.614,2.466-4.184.331-5.327-.491-3.8-3.125.762-3.125.762Z" transform="translate(-4035.801 -3223.462)" fill="#3c3c3e"/>
      <path id="Trazado_811129" data-name="Trazado 811129" d="M4587.1,3416h-2.014c-.4-.264-.383-.687.755-1.251,0,0,1.187.8,1.259,1.251Z" transform="translate(-4198.963 -3375.724)" fill="#3c3c3e"/>
      <path id="Trazado_811130" data-name="Trazado 811130" d="M4536.054,3326.327c0,1.332,2.8,3.8,3.124,1.713s-3.124-1.713-3.124-1.713Z" transform="translate(-4154.271 -3294.717)" fill="#3c3c3e"/>
      <path id="Trazado_811131" data-name="Trazado 811131" d="M4131.851,3206.853c-2.63,2.092-.986,3.614,0,2.474a2.05,2.05,0,0,0,0-2.474Z" transform="translate(-3782.786 -3185.322)" fill="#3c3c3e"/>
      <path id="Trazado_811132" data-name="Trazado 811132" d="M4015.1,3277.338h-5.668a2.6,2.6,0,0,1-.364-2.392c.494-1.522.986,1.521,2.958,1.711s3.291-1.9,1.81-3.424,0-1.331,3.125-3.043-2.959-2.853-2.139-5.325c.328-3.615,3.288,0,5.261,2.663s3.782.38,3.618,2.471-3.289,1.713-5.755,3.045,0,1.712-.823,2.851a4.954,4.954,0,0,1-2.023,1.442Z" transform="translate(-3671.511 -3237.059)" fill="#3c3c3e"/>
      <path id="Trazado_811133" data-name="Trazado 811133" d="M4154.843,3059.964c-1.972,1.331.494,4.756,1.479,2.855s-1.479-2.855-1.479-2.855Z" transform="translate(-3804.463 -3050.796)" fill="#3c3c3e"/>
      <path id="Trazado_811134" data-name="Trazado 811134" d="M3480.17,3111.017c-3.487,2.464,1.743,4.033,2.517,2.464s-2.517-2.464-2.517-2.464Z" transform="translate(-3186.17 -3097.553)" fill="#909694" fill-rule="evenodd"/>
      <path id="Trazado_811135" data-name="Trazado 811135" d="M3988.448,3182.251c-2.13,2.016.582,4.929,1.744,4.032s-1.55-2.241-1.55-2.241,3.293-2.24-.194-1.791Z" transform="translate(-3652.028 -3162.737)" fill="#909694" fill-rule="evenodd"/>
      <path id="Trazado_811136" data-name="Trazado 811136" d="M4339.973,3331.045c1.162-1.12,3.874.9,2.712,1.792s-2.712-1.792-2.712-1.792Z" transform="translate(-3974.694 -3298.76)" fill="#909694" fill-rule="evenodd"/>
      <path id="Trazado_811137" data-name="Trazado 811137" d="M3763.979,3084.939c-1.743,1.12,1.744,5.153,2.325,2.017s-2.325-2.017-2.325-2.017Z" transform="translate(-3446.736 -3073.493)" fill="#909694" fill-rule="evenodd"/>
      <path id="Trazado_811138" data-name="Trazado 811138" d="M3893.3,3313.341s4.26.448,2.517,2.017-6.392-.9-2.517-2.017Z" transform="translate(-3564.236 -3282.848)" fill="#909694" fill-rule="evenodd"/>
      <path id="Trazado_811139" data-name="Trazado 811139" d="M4066.113,3051.127c1.55-1.569,2.905.224,2.13,1.569s-2.13-1.569-2.13-1.569Z" transform="translate(-3723.883 -3042.145)" fill="#909694" fill-rule="evenodd"/>
      <path id="Trazado_811140" data-name="Trazado 811140" d="M4754.144,2991.331h-114.5l8.9-6.5,6.786-1.141c-1.239-7.167,3.958-7.922,6.438-8.494s1.238-4.3,2.973-5.449,4.708-.861,4.708-.861-.743-4.585,1.984-5.732a15.3,15.3,0,0,1,6.194-.86,4.9,4.9,0,0,1,2.23-3.441,12.542,12.542,0,0,1,5.206-1.146s1.239-3.153,3.471-3.153,2.973,3.153,5.7,2.006,3.469-4.874,5.7-4.013a9.612,9.612,0,0,0,6.939-.287c1.982-.859,2.479.574,4.459.287s3.967-2.293,7.437-1.146,8.178,1.433,11.15.285,7.188-.285,7.188-.285l6.2,2.007s.494-1.722,3.963-1.147a16.406,16.406,0,0,1,5.7,2.007,9.357,9.357,0,0,1,1.17-.333v37.394Z" transform="translate(-4249.144 -2951.051)" fill="#2b271a"/>
      <path id="Trazado_811141" data-name="Trazado 811141" d="M4921.325,3236.358h-7.608c-.422-2.678.906-3.532.906-3.532s-3.615-2.283-1.973-4,3.29-.76,4.273-2.093.822-5.134-.658-3.422-4.6,1.14-3.452-.191a5.54,5.54,0,0,1,3.289-1.521s-.821-3.8,1.317-2.854c2.135.38.821,2.473.821,2.473a2.451,2.451,0,0,1,2.3,1.711c.492,1.711-1.313,1.9.166,2.853s1.643-.571,3.615.38,3.783,2.471,1.479,2.282-2.63-.19-3.617.762-3.452-2.854-3.781.189-1.151,5.325.329,4.945,1.479-3.8,3.781-3.233,4.112,3.424,3.946.762,1.48-3.424,3.289-1.711,2.96.569.658-2.093-.166-3.8,1.314-2.282,2.8-.951,2.8-.951,2.135-1.142,2.96.38.821,2.853-1.646,2.664-3.452-.762-2.63.949,1.479,4-.492,4-3.618-2.093-3.618.189-1.643,4.375-3.947,2.473-3.122-.951-3.777.761c-.015.035-.029.071-.042.109Z" transform="translate(-4498.779 -3196.079)" fill="#3c3c3e"/>
      <path id="Trazado_811142" data-name="Trazado 811142" d="M5079.112,3119.575c-3.781-.76-2.8,2.092-2.8,2.092s-2.957-1.9-2.794.951,3.289,2.473,3.289,2.473-2.467,3.233.326,3.233-.489-1.9,3.126-1.9,6.412-.949,4.273-2.853-2.3.191-4.11,0-4.11-.38-1.314-1.711,0-2.282,0-2.282Z" transform="translate(-4646.497 -3105.273)" fill="#3c3c3e"/>
      <path id="Trazado_811143" data-name="Trazado 811143" d="M5347.827,3003.937c-3.947,3.8-.167,2.663,1.806,2.473s3.621-3.044,5.1-.38,2.63.76,2.136-.38,2.63-2.284.495-2.473-3.621,0-4.442-1.142-7.233-1.331-5.095,1.9Z" transform="translate(-4896.136 -2997.053)" fill="#3c3c3e"/>
      <path id="Trazado_811144" data-name="Trazado 811144" d="M5328.048,3245.268c-2.63,2.091-1.151,7.229,1.313,4.755s-.984-.951,0-2.853-1.313-1.9-1.313-1.9Z" transform="translate(-4878.331 -3220.505)" fill="#3c3c3e"/>
      <path id="Trazado_811145" data-name="Trazado 811145" d="M5243.79,3251.431c-.329,3.233-1.153,2.662,2.135,2.473s4.934-3.424,3.125-2.662a8.158,8.158,0,0,1-2.794.759s-.495-3.8-2.467-.57Z" transform="translate(-4802.13 -3224.956)" fill="#3c3c3e"/>
      <path id="Trazado_811146" data-name="Trazado 811146" d="M5252.736,3344.774h-2.715c.886-.265.493-2.045.094-2.964-.493-1.141-3.289,0-4.768,1.9s-2.957,0-3.453-2.284-.163-.761-2.467-.379-2.3-1.9.824-3.806c3.615-.76,4.274,0,4.437,3.424s1.975.189,4.276-1.522,3.455,0,5.427,3.235c1.948,3.193-1.876.264-1.655,2.392Zm-3.251,0h-1.957a1.63,1.63,0,0,1,1.6-.109,2.59,2.59,0,0,0,.355.109Z" transform="translate(-4796.947 -3304.495)" fill="#3c3c3e"/>
      <path id="Trazado_811147" data-name="Trazado 811147" d="M5403.5,3236.227c-1.972,2.663-.329,3.424.822,2.093s-.822-2.093-.822-2.093Z" transform="translate(-4947.859 -3212.224)" fill="#3c3c3e"/>
      <path id="Trazado_811148" data-name="Trazado 811148" d="M5446.41,3306.284c-1.15,2.474-.492,2.093,1.48,3.043s.492,4.757,2.463,2.475a13.8,13.8,0,0,0,2.631-4.375,4.638,4.638,0,0,0-3.123-.571,6.255,6.255,0,0,1-3.452-.571Z" transform="translate(-4987.486 -3276.385)" fill="#3c3c3e"/>
      <path id="Trazado_811149" data-name="Trazado 811149" d="M5440.875,3194.558c-.988,1.332,2.464,2.854,2.464,1.142s-2.464-1.142-2.464-1.142Z" transform="translate(-4982.771 -3173.979)" fill="#3c3c3e"/>
      <path id="Trazado_811150" data-name="Trazado 811150" d="M5527.324,3175.213c-2.139,1.331-.985,2.855,0,1.713s0-1.713,0-1.713Z" transform="translate(-5061.002 -3156.346)" fill="#3c3c3e"/>
      <path id="Trazado_811151" data-name="Trazado 811151" d="M5455.855,3132.277c-2.136,1.14.821,1.522.821,1.522l-.821-1.522Z" transform="translate(-4995.945 -3117.024)" fill="#3c3c3e"/>
      <path id="Trazado_811152" data-name="Trazado 811152" d="M5603.244,3290.464c-1.151,2.852.984,3.8,1.479,2.282s-1.479-2.282-1.479-2.282Z" transform="translate(-5131.33 -3261.896)" fill="#3c3c3e"/>
      <path id="Trazado_811153" data-name="Trazado 811153" d="M5464.632,3242.369c-4.273,2.283-2.3,1.331.5,2.283s3.944-2.852-.5-2.283Z" transform="translate(-5002.42 -3217.796)" fill="#3c3c3e"/>
      <path id="Trazado_811154" data-name="Trazado 811154" d="M5587.837,3148.1c-3.126,1.9-2.631.382.492,1.523s-.492-1.523-.492-1.523Z" transform="translate(-5115.595 -3131.511)" fill="#3c3c3e"/>
      <path id="Trazado_811155" data-name="Trazado 811155" d="M5520.688,3014.129c-2.3,1.711-1.643.57.329,1.9s4.274-2.472-.329-1.9Z" transform="translate(-5054.694 -3008.766)" fill="#3c3c3e"/>
      <path id="Trazado_811156" data-name="Trazado 811156" d="M5586,3023.809c-3.947.762-5.919,2.093-3.126,1.713s2.139.189,4.273,1.521-1.147-3.233-1.147-3.233Z" transform="translate(-5111.784 -3017.685)" fill="#3c3c3e"/>
      <path id="Trazado_811157" data-name="Trazado 811157" d="M5919.173,3367.3c-3.122,3.995-1.313,2.284,1.48,3.424,1.934.789,3.079.94,3.821.207V3367.7a3.246,3.246,0,0,0-2.176.735c-1.154.951-3.126-1.142-3.126-1.142Z" transform="translate(-5419.475 -3332.263)" fill="#3c3c3e"/>
      <path id="Trazado_811158" data-name="Trazado 811158" d="M5904,3206.853c-2.63,2.092-.987,3.614,0,2.474a2.052,2.052,0,0,0,0-2.474Z" transform="translate(-5405.779 -3185.322)" fill="#3c3c3e"/>
      <path id="Trazado_811159" data-name="Trazado 811159" d="M5787.246,3277.336h-5.668a2.609,2.609,0,0,1-.365-2.391c.5-1.522.984,1.521,2.96,1.711s3.288-1.9,1.809-3.424,0-1.332,3.125-3.042-2.962-2.854-2.14-5.325c.332-3.613,3.288,0,5.264,2.663s3.781.38,3.614,2.472-3.286,1.713-5.753,3.044,0,1.713-.822,2.852a4.971,4.971,0,0,1-2.024,1.441Z" transform="translate(-5294.502 -3237.058)" fill="#3c3c3e"/>
      <path id="Trazado_811160" data-name="Trazado 811160" d="M5926.991,3059.964c-1.976,1.331.492,4.756,1.479,2.854s-1.479-2.854-1.479-2.854Z" transform="translate(-5427.455 -3050.796)" fill="#3c3c3e"/>
      <path id="Trazado_811161" data-name="Trazado 811161" d="M5252.318,3111.017c-3.487,2.464,1.745,4.033,2.52,2.464s-2.52-2.464-2.52-2.464Z" transform="translate(-4809.163 -3097.553)" fill="#909694" fill-rule="evenodd"/>
      <path id="Trazado_811162" data-name="Trazado 811162" d="M5760.595,3182.251c-2.129,2.016.583,4.929,1.745,4.032s-1.549-2.241-1.549-2.241,3.294-2.24-.2-1.791Z" transform="translate(-5275.02 -3162.737)" fill="#909694" fill-rule="evenodd"/>
      <path id="Trazado_811163" data-name="Trazado 811163" d="M5536.128,3084.939c-1.745,1.122,1.742,5.153,2.325,2.017s-2.325-2.017-2.325-2.017Z" transform="translate(-5069.729 -3073.493)" fill="#909694" fill-rule="evenodd"/>
      <path id="Trazado_811164" data-name="Trazado 811164" d="M5665.445,3313.341s4.262.448,2.517,2.017-6.388-.9-2.517-2.017Z" transform="translate(-5187.232 -3282.848)" fill="#909694" fill-rule="evenodd"/>
      <path id="Trazado_811165" data-name="Trazado 811165" d="M5838.262,3051.127c1.55-1.569,2.9.224,2.126,1.569s-2.126-1.569-2.126-1.569Z" transform="translate(-5346.875 -3042.145)" fill="#909694" fill-rule="evenodd"/>
    </g>
  </g>
</svg>
