<svg xmlns="http://www.w3.org/2000/svg" width="96" height="96" viewBox="0 0 96 96">
  <g id="Grupo_1070239" data-name="Grupo 1070239" transform="translate(-921.333 -418)">
    <g id="Grupo_1070349" data-name="Grupo 1070349">
      <g id="Grupo_246409" data-name="Grupo 246409" transform="translate(-430 123)">
        <circle id="Elipse_4282" data-name="Elipse 4282" cx="48" cy="48" r="48" transform="translate(1351.333 295)" fill="#fffad0"/>
      </g>
      <g id="Grupo_1070423" data-name="Grupo 1070423" transform="translate(650.338 148.379)">
        <g id="Grupo_1070420" data-name="Grupo 1070420" transform="translate(287.237 277.947)">
          <rect id="Rectángulo_375554" data-name="Rectángulo 375554" width="49.326" height="63.627" transform="translate(14.618 3.382) rotate(13.282)" fill="#1b3f5e"/>
          <rect id="Rectángulo_375555" data-name="Rectángulo 375555" width="49.326" height="63.627" transform="translate(15.509 3.592) rotate(13.282)" fill="#632059"/>
          <rect id="Rectángulo_375556" data-name="Rectángulo 375556" width="41.249" height="53.767" transform="translate(18.026 10.506) rotate(13.282)" fill="#fff"/>
          <path id="Rectángulo_375557" data-name="Rectángulo 375557" d="M6.756,0H16.6a6.756,6.756,0,0,1,6.756,6.756v0a0,0,0,0,1,0,0H0a0,0,0,0,1,0,0v0A6.756,6.756,0,0,1,6.756,0Z" transform="matrix(0.973, 0.23, -0.23, 0.973, 29.698, 0)" fill="#1b3f5e"/>
          <g id="Grupo_1070415" data-name="Grupo 1070415" transform="translate(19.006 15.282)">
            <circle id="Elipse_5731" data-name="Elipse 5731" cx="3.966" cy="3.966" r="3.966" transform="translate(0 1.64) rotate(-11.937)" fill="#fffad0"/>
            <path id="Trazado_810590" data-name="Trazado 810590" d="M345.172,327.777a.611.611,0,0,1-.52-.29L343,324.806a.61.61,0,1,1,1.038-.642l1.336,2.162,4.247-2.625a.61.61,0,1,1,.642,1.038l-4.767,2.945A.608.608,0,0,1,345.172,327.777Z" transform="translate(-340.666 -321.465)" fill="#3b5620"/>
            <g id="Grupo_1070414" data-name="Grupo 1070414" transform="translate(10.678 3.366)">
              <path id="Trazado_810591" data-name="Trazado 810591" d="M390.465,333.19a.611.611,0,0,1-.14-.016l-21.85-5.158a.61.61,0,1,1,.28-1.188l21.85,5.157a.611.611,0,0,1-.14,1.2Z" transform="translate(-366.865 -326.811)" fill="#1b3f5e"/>
              <path id="Trazado_810592" data-name="Trazado 810592" d="M388.972,339.512a.613.613,0,0,1-.14-.016l-21.85-5.158a.61.61,0,1,1,.28-1.188l21.85,5.158a.61.61,0,0,1-.14,1.2Z" transform="translate(-365.941 -330.721)" fill="#1b3f5e"/>
              <path id="Trazado_810593" data-name="Trazado 810593" d="M387.479,345.835a.591.591,0,0,1-.14-.016l-21.85-5.157a.61.61,0,1,1,.28-1.188l21.85,5.158a.61.61,0,0,1-.14,1.2Z" transform="translate(-365.019 -334.631)" fill="#1b3f5e"/>
            </g>
          </g>
          <g id="Grupo_1070417" data-name="Grupo 1070417" transform="translate(16.839 28.303)">
            <path id="Trazado_810594" data-name="Trazado 810594" d="M339.187,356.989a3.966,3.966,0,1,1-2.948-4.771A3.966,3.966,0,0,1,339.187,356.989Z" transform="translate(-331.361 -352.112)" fill="#fffad0"/>
            <path id="Trazado_810595" data-name="Trazado 810595" d="M337.571,359.975a.624.624,0,0,1-.14-.016.612.612,0,0,1-.379-.273L335.4,357a.61.61,0,0,1,1.038-.642l1.336,2.162,4.247-2.625a.61.61,0,0,1,.642,1.038l-4.767,2.946A.612.612,0,0,1,337.571,359.975Z" transform="translate(-333.799 -354.397)" fill="#3b5620"/>
            <g id="Grupo_1070416" data-name="Grupo 1070416" transform="translate(9.944 2.633)">
              <path id="Trazado_810596" data-name="Trazado 810596" d="M382.863,365.389a.611.611,0,0,1-.14-.016l-21.85-5.158a.61.61,0,0,1,.28-1.188L383,364.185a.61.61,0,0,1-.14,1.2Z" transform="translate(-359.264 -359.01)" fill="#1b3f5e"/>
              <path id="Trazado_810597" data-name="Trazado 810597" d="M381.371,371.711a.594.594,0,0,1-.14-.016l-21.85-5.157a.611.611,0,0,1,.28-1.188l21.85,5.158a.61.61,0,0,1-.14,1.2Z" transform="translate(-358.341 -362.92)" fill="#1b3f5e"/>
              <path id="Trazado_810598" data-name="Trazado 810598" d="M379.879,378.034a.594.594,0,0,1-.14-.016l-21.85-5.158a.61.61,0,0,1,.28-1.188l21.85,5.158a.61.61,0,0,1-.14,1.2Z" transform="translate(-357.419 -366.83)" fill="#1b3f5e"/>
            </g>
          </g>
          <g id="Grupo_1070419" data-name="Grupo 1070419" transform="translate(12.619 39.272)">
            <circle id="Elipse_5732" data-name="Elipse 5732" cx="3.966" cy="3.966" r="3.966" transform="matrix(0.43, -0.903, 0.903, 0.43, 0, 7.16)" fill="#fffad0"/>
            <path id="Trazado_810599" data-name="Trazado 810599" d="M329.97,392.175a.624.624,0,0,1-.14-.016.61.61,0,0,1-.379-.273l-1.657-2.681a.61.61,0,0,1,1.038-.642l1.336,2.162,4.247-2.625a.61.61,0,0,1,.642,1.038l-4.766,2.946A.612.612,0,0,1,329.97,392.175Z" transform="translate(-324.88 -385.278)" fill="#3b5620"/>
            <g id="Grupo_1070418" data-name="Grupo 1070418" transform="translate(11.263 3.951)">
              <path id="Trazado_810600" data-name="Trazado 810600" d="M375.263,397.587a.614.614,0,0,1-.14-.016l-21.85-5.157a.61.61,0,1,1,.28-1.188l21.85,5.158a.61.61,0,0,1-.14,1.2Z" transform="translate(-351.663 -391.209)" fill="#1b3f5e"/>
              <path id="Trazado_810601" data-name="Trazado 810601" d="M373.77,403.91a.593.593,0,0,1-.14-.016l-21.85-5.158a.61.61,0,1,1,.28-1.188l21.85,5.158a.61.61,0,0,1-.14,1.2Z" transform="translate(-350.741 -395.119)" fill="#1b3f5e"/>
              <path id="Trazado_810602" data-name="Trazado 810602" d="M372.278,410.233a.613.613,0,0,1-.14-.016l-21.85-5.158a.61.61,0,0,1,.28-1.188l21.85,5.157a.611.611,0,0,1-.14,1.2Z" transform="translate(-349.818 -399.029)" fill="#1b3f5e"/>
            </g>
          </g>
        </g>
        <g id="Grupo_1070422" data-name="Grupo 1070422" transform="translate(296.86 329.343)">
          <circle id="Elipse_5733" data-name="Elipse 5733" cx="3.966" cy="3.966" r="3.966" transform="matrix(0.845, -0.534, 0.534, 0.845, 0, 4.237)" fill="#fffad0"/>
          <path id="Trazado_810603" data-name="Trazado 810603" d="M322.605,424.428a.61.61,0,0,1-.52-.29l-1.657-2.681a.61.61,0,0,1,1.038-.642l1.336,2.162,4.247-2.625a.61.61,0,1,1,.642,1.038l-4.766,2.946A.607.607,0,0,1,322.605,424.428Z" transform="translate(-317.328 -417.346)" fill="#3b5620"/>
          <g id="Grupo_1070421" data-name="Grupo 1070421" transform="translate(11.448 4.136)">
            <path id="Trazado_810604" data-name="Trazado 810604" d="M367.9,429.841a.618.618,0,0,1-.141-.016l-21.849-5.158a.61.61,0,1,1,.28-1.188l21.85,5.158a.61.61,0,0,1-.14,1.2Z" transform="translate(-344.298 -423.462)" fill="#1b3f5e"/>
            <path id="Trazado_810605" data-name="Trazado 810605" d="M366.405,436.164a.593.593,0,0,1-.14-.016l-21.85-5.157a.611.611,0,0,1,.281-1.188l21.85,5.158a.61.61,0,0,1-.14,1.2Z" transform="translate(-343.375 -427.372)" fill="#1b3f5e"/>
            <path id="Trazado_810606" data-name="Trazado 810606" d="M364.912,442.487a.614.614,0,0,1-.14-.016l-21.85-5.158a.61.61,0,1,1,.28-1.188l21.85,5.158a.611.611,0,0,1-.14,1.2Z" transform="translate(-342.452 -431.282)" fill="#1b3f5e"/>
          </g>
        </g>
      </g>
    </g>
  </g>
</svg>
