<svg xmlns="http://www.w3.org/2000/svg" width="86.317" height="71.184" viewBox="0 0 86.317 71.184">
  <g id="_x30_7_Video_player" transform="translate(0 -44.882)">
    <g id="Grupo_1067525" data-name="Grupo 1067525" transform="translate(0 44.882)">
      <path id="Trazado_808833" data-name="Trazado 808833" d="M86.317,48.555v63.838a3.672,3.672,0,0,1-3.673,3.673H3.673A3.751,3.751,0,0,1,2.6,115.91,3.678,3.678,0,0,1,0,112.393V48.555a3.678,3.678,0,0,1,2.6-3.517,3.759,3.759,0,0,1,1.074-.156H82.644A3.672,3.672,0,0,1,86.317,48.555Z" transform="translate(0 -44.882)" fill="#1b3f5e"/>
      <path id="Trazado_808834" data-name="Trazado 808834" d="M180.98,400.341a1.844,1.844,0,0,1-1.844,1.844H122.328a1.844,1.844,0,0,1,0-3.689h56.807A1.844,1.844,0,0,1,180.98,400.341Z" transform="translate(-100.172 -338.882)" fill="#edf6fe"/>
      <path id="Trazado_808835" data-name="Trazado 808835" d="M147.712,398.5H122.425a1.913,1.913,0,0,0-1.918,1.535,1.846,1.846,0,0,0,1.819,2.154h25.385Z" transform="translate(-100.171 -338.882)" fill="#632059"/>
      <path id="Trazado_808836" data-name="Trazado 808836" d="M40.136,384.436H34.517a1.837,1.837,0,0,0-1.837,1.837v4.757a1.837,1.837,0,0,0,1.837,1.837h5.619a1.837,1.837,0,0,0,1.837-1.837v-4.757A1.837,1.837,0,0,0,40.136,384.436Z" transform="translate(-27.171 -327.191)" fill="#f2fdff"/>
      <path id="Trazado_808837" data-name="Trazado 808837" d="M107.978,121.962V79.411a1.837,1.837,0,0,0-1.837-1.837H34.517a1.837,1.837,0,0,0-1.837,1.837v42.552a1.837,1.837,0,0,0,1.837,1.837h71.625A1.837,1.837,0,0,0,107.978,121.962Z" transform="translate(-27.171 -72.063)" fill="#70ccef"/>
      <path id="Trazado_808838" data-name="Trazado 808838" d="M280.675,384.261v5.247a1.949,1.949,0,0,1-3.9,0v-5.247a1.949,1.949,0,1,1,3.9,0Z" transform="translate(-230.115 -325.425)" fill="#5e707c"/>
      <path id="Trazado_808839" data-name="Trazado 808839" d="M204.462,150.028a13.109,13.109,0,1,1-13.109-13.1A13.108,13.108,0,0,1,204.462,150.028Z" transform="translate(-148.194 -121.407)" fill="#f2fdff"/>
      <g id="Grupo_1067524" data-name="Grupo 1067524" transform="translate(8.881 22.261)">
        <path id="Trazado_808840" data-name="Trazado 808840" d="M244.779,184.085l-7.94,5.4a.962.962,0,0,1-1.5-.8v-10.8a.962.962,0,0,1,1.5-.8l7.94,5.4A.962.962,0,0,1,244.779,184.085Z" transform="translate(-204.542 -176.927)" fill="#632059"/>
        <path id="Trazado_808841" data-name="Trazado 808841" d="M55.759,399.452l-2.592,1.763a.314.314,0,0,1-.491-.26V397.43a.314.314,0,0,1,.491-.26l2.592,1.763A.314.314,0,0,1,55.759,399.452Z" transform="translate(-52.676 -359.994)" fill="#632059"/>
      </g>
    </g>
  </g>
</svg>
