<svg xmlns="http://www.w3.org/2000/svg" width="82.996" height="82.996" viewBox="0 0 82.996 82.996">
  <g id="enlace_1_" data-name="enlace (1)" transform="translate(-1 -1)">
    <path id="Trazado_810555" data-name="Trazado 810555" d="M84,9.431V76.686A4.293,4.293,0,0,1,79.7,80.979H5.293A4.293,4.293,0,0,1,1,76.686V9.431L2.431,8H82.565Z" transform="translate(0 3.017)" fill="#e1efff"/>
    <path id="Trazado_810556" data-name="Trazado 810556" d="M84,5.293v7.155H1V5.293A4.293,4.293,0,0,1,5.293,1H79.7A4.293,4.293,0,0,1,84,5.293Z" transform="translate(0 0)" fill="#5a6277"/>
    <path id="Trazado_810557" data-name="Trazado 810557" d="M6.862,6.862H5.431A1.431,1.431,0,1,1,5.431,4H6.862a1.431,1.431,0,1,1,0,2.862Z" transform="translate(1.293 1.293)" fill="#6ae596"/>
    <path id="Trazado_810558" data-name="Trazado 810558" d="M11.862,6.862H10.431a1.431,1.431,0,1,1,0-2.862h1.431a1.431,1.431,0,0,1,0,2.862Z" transform="translate(3.448 1.293)" fill="#fde05e"/>
    <path id="Trazado_810559" data-name="Trazado 810559" d="M16.862,6.862H15.431a1.431,1.431,0,1,1,0-2.862h1.431a1.431,1.431,0,1,1,0,2.862Z" transform="translate(5.603 1.293)" fill="#f26376"/>
    <path id="Trazado_810560" data-name="Trazado 810560" d="M58.017,6.862H49.431a1.431,1.431,0,1,1,0-2.862h8.586a1.431,1.431,0,0,1,0,2.862Z" transform="translate(20.255 1.293)" fill="#434b5b"/>
    <path id="Trazado_810561" data-name="Trazado 810561" d="M63.4,17.85a13.136,13.136,0,0,0-18.588,0L32.423,30.228a13.059,13.059,0,0,0-2.547,3.635,12.706,12.706,0,0,0-3.635,2.561L13.849,48.817A13.134,13.134,0,1,0,32.423,67.39L44.815,55.013a12.82,12.82,0,0,0,2.561-3.635,13.112,13.112,0,0,0,3.635-2.561L63.4,36.424a13.318,13.318,0,0,0,0-18.574ZM34.5,38.556a7.208,7.208,0,0,1,8.257,8.128A7.208,7.208,0,0,1,34.5,38.556ZM28.3,63.269A7.306,7.306,0,1,1,17.97,52.938L28.831,42.091a13.148,13.148,0,0,0,3.592,6.726,12.89,12.89,0,0,0,6.74,3.592ZM59.267,32.3,48.406,43.164a12.842,12.842,0,0,0-10.36-10.246l.043-.072L48.95,21.986A7.3,7.3,0,1,1,59.267,32.3Z" transform="translate(3.879 5.601)" fill="#3778c6"/>
    <path id="Trazado_810562" data-name="Trazado 810562" d="M47.376,45.751a12.82,12.82,0,0,1-2.561,3.635L32.422,61.764A13.134,13.134,0,0,1,13.849,43.19L26.241,30.8a13.39,13.39,0,0,1,18.574,0,13.022,13.022,0,0,1,3.592,6.74c-1.666,1.666-3.213,3.207-5.652,3.549a7.3,7.3,0,0,0-12.392-6.153L17.97,47.311A7.306,7.306,0,0,0,28.3,57.643L39.162,46.782a13.152,13.152,0,0,0,8.214-1.03Z" transform="translate(3.879 11.228)" fill="#2d629b"/>
  </g>
</svg>
